<mxfile host="65bd71144e">
    <diagram id="o5Zr4Xy9Oi9ViZB-SziX" name="oci_provider_stackspot">
        <mxGraphModel dx="2117" dy="1094" grid="1" gridSize="10" guides="1" tooltips="1" connect="1" arrows="1" fold="1" page="0" pageScale="1" pageWidth="827" pageHeight="1169" math="0" shadow="0">
            <root>
                <mxCell id="0"/>
                <mxCell id="1" parent="0"/>
                <mxCell id="4" value="" style="rounded=0;whiteSpace=wrap;html=1;" parent="1" vertex="1">
                    <mxGeometry x="-122" y="80" width="920" height="520" as="geometry"/>
                </mxCell>
                <mxCell id="11" style="edgeStyle=none;html=1;exitX=0;exitY=0.5;exitDx=0;exitDy=0;entryX=0.167;entryY=-0.017;entryDx=0;entryDy=0;entryPerimeter=0;fontFamily=Verdana;fontSize=14;" parent="1" source="7" target="8" edge="1">
                    <mxGeometry relative="1" as="geometry">
                        <Array as="points">
                            <mxPoint x="-49" y="225"/>
                        </Array>
                    </mxGeometry>
                </mxCell>
                <mxCell id="14" style="edgeStyle=none;html=1;entryX=0.5;entryY=1;entryDx=0;entryDy=0;fontFamily=Verdana;fontSize=14;exitX=1;exitY=0.15;exitDx=0;exitDy=0;exitPerimeter=0;" parent="1" source="3c5btsWGo0mPK0tM8FJX-45" target="9" edge="1">
                    <mxGeometry relative="1" as="geometry">
                        <mxPoint x="180" y="-60" as="sourcePoint"/>
                        <Array as="points">
                            <mxPoint x="880" y="-40"/>
                            <mxPoint x="880" y="300"/>
                            <mxPoint x="880" y="640"/>
                            <mxPoint x="333" y="640"/>
                        </Array>
                    </mxGeometry>
                </mxCell>
                <mxCell id="16" style="edgeStyle=none;html=1;exitX=1;exitY=0.75;exitDx=0;exitDy=0;entryX=0.62;entryY=0;entryDx=0;entryDy=0;fontFamily=Verdana;fontSize=14;entryPerimeter=0;" parent="1" source="3c5btsWGo0mPK0tM8FJX-45" target="10" edge="1">
                    <mxGeometry relative="1" as="geometry">
                        <Array as="points">
                            <mxPoint x="540"/>
                            <mxPoint x="653"/>
                        </Array>
                    </mxGeometry>
                </mxCell>
                <mxCell id="7" value="" style="rounded=0;whiteSpace=wrap;html=1;fillColor=none;fontColor=#ffffff;strokeColor=#B20000;strokeWidth=5;" parent="1" vertex="1">
                    <mxGeometry x="63" y="170" width="537" height="110" as="geometry"/>
                </mxCell>
                <mxCell id="8" value="" style="rounded=0;whiteSpace=wrap;html=1;fillColor=none;fontColor=#000000;strokeColor=#C73500;strokeWidth=6;" parent="1" vertex="1">
                    <mxGeometry x="-92.5" y="320" width="260.5" height="240" as="geometry"/>
                </mxCell>
                <mxCell id="9" value="" style="rounded=0;whiteSpace=wrap;html=1;fillColor=none;fontColor=#000000;strokeColor=#C73500;strokeWidth=5;" parent="1" vertex="1">
                    <mxGeometry x="208" y="320" width="249" height="240" as="geometry"/>
                </mxCell>
                <mxCell id="10" value="" style="rounded=0;whiteSpace=wrap;html=1;fillColor=none;fontColor=#000000;strokeColor=#C73500;strokeWidth=5;" parent="1" vertex="1">
                    <mxGeometry x="498" y="320" width="250" height="240" as="geometry"/>
                </mxCell>
                <mxCell id="eEjcCwT-WWLBCNDeV5EP-11" value="ORACLE ORGANIZATION MANAGER" style="text;html=1;strokeColor=none;fillColor=none;align=center;verticalAlign=middle;whiteSpace=wrap;rounded=0;" parent="1" vertex="1">
                    <mxGeometry x="-122" y="80" width="272" height="60" as="geometry"/>
                </mxCell>
                <mxCell id="eEjcCwT-WWLBCNDeV5EP-14" value="&lt;meta charset=&quot;utf-8&quot; style=&quot;font-size: 14px;&quot;&gt;&lt;b id=&quot;docs-internal-guid-2c7463f4-7fff-0f67-e790-ca0538a50403&quot; style=&quot;font-weight: normal; font-size: 14px;&quot;&gt;&lt;p style=&quot;line-height: 1.2; margin-top: 0pt; margin-bottom: 0pt; font-size: 14px;&quot; dir=&quot;ltr&quot;&gt;&lt;span style=&quot;font-size: 14px; font-family: Montserrat, sans-serif; color: rgb(255, 102, 51); background-color: transparent; font-weight: 400; font-style: normal; font-variant: normal; text-decoration: none; vertical-align: baseline;&quot;&gt;Tenancy Cliente 1&lt;/span&gt;&lt;/p&gt;&lt;/b&gt;&lt;br class=&quot;Apple-interchange-newline&quot; style=&quot;font-size: 14px;&quot;&gt;" style="text;html=1;strokeColor=none;fillColor=none;align=center;verticalAlign=middle;whiteSpace=wrap;rounded=0;fontSize=14;" parent="1" vertex="1">
                    <mxGeometry x="-30" y="328" width="124" height="30" as="geometry"/>
                </mxCell>
                <mxCell id="eEjcCwT-WWLBCNDeV5EP-15" value="&lt;b id=&quot;docs-internal-guid-2c7463f4-7fff-0f67-e790-ca0538a50403&quot; style=&quot;font-weight: normal; font-size: 14px;&quot;&gt;&lt;p style=&quot;line-height: 1.2; margin-top: 0pt; margin-bottom: 0pt; font-size: 14px;&quot; dir=&quot;ltr&quot;&gt;&lt;/p&gt;&lt;/b&gt;&lt;span id=&quot;docs-internal-guid-7c695bc2-7fff-77f9-e0ae-277e176d6c0d&quot; style=&quot;font-size: 14px;&quot;&gt;&lt;p style=&quot;line-height: 1.2; margin-top: 0pt; margin-bottom: 0pt; font-size: 14px;&quot; dir=&quot;ltr&quot;&gt;&lt;span style=&quot;font-size: 14px; font-family: Montserrat, sans-serif; color: rgb(255, 102, 51); background-color: transparent; font-variant-numeric: normal; font-variant-east-asian: normal; font-variant-alternates: normal; font-variant-position: normal; vertical-align: baseline;&quot;&gt;Tenancy Cliente 2&lt;/span&gt;&lt;/p&gt;&lt;div style=&quot;font-size: 14px;&quot;&gt;&lt;span style=&quot;font-size: 14px; font-family: Montserrat, sans-serif; color: rgb(255, 102, 51); background-color: transparent; font-variant-numeric: normal; font-variant-east-asian: normal; font-variant-alternates: normal; font-variant-position: normal; vertical-align: baseline;&quot;&gt;&lt;br style=&quot;font-size: 14px;&quot;&gt;&lt;/span&gt;&lt;/div&gt;&lt;/span&gt;" style="text;html=1;strokeColor=none;fillColor=none;align=center;verticalAlign=middle;whiteSpace=wrap;rounded=0;fontSize=14;" parent="1" vertex="1">
                    <mxGeometry x="276" y="328" width="124" height="30" as="geometry"/>
                </mxCell>
                <mxCell id="eEjcCwT-WWLBCNDeV5EP-16" value="&lt;b id=&quot;docs-internal-guid-2c7463f4-7fff-0f67-e790-ca0538a50403&quot; style=&quot;font-weight: normal; font-size: 14px;&quot;&gt;&lt;p style=&quot;line-height: 1.2; margin-top: 0pt; margin-bottom: 0pt; font-size: 14px;&quot; dir=&quot;ltr&quot;&gt;&lt;/p&gt;&lt;/b&gt;&lt;span id=&quot;docs-internal-guid-7c695bc2-7fff-77f9-e0ae-277e176d6c0d&quot; style=&quot;font-size: 14px;&quot;&gt;&lt;p style=&quot;line-height: 1.2; margin-top: 0pt; margin-bottom: 0pt; font-size: 14px;&quot; dir=&quot;ltr&quot;&gt;&lt;span style=&quot;font-size: 14px; font-family: Montserrat, sans-serif; color: rgb(255, 102, 51); background-color: transparent; font-variant-numeric: normal; font-variant-east-asian: normal; font-variant-alternates: normal; font-variant-position: normal; vertical-align: baseline;&quot;&gt;Tenancy Cliente 3&lt;/span&gt;&lt;/p&gt;&lt;p style=&quot;line-height: 1.2; margin-top: 0pt; margin-bottom: 0pt; font-size: 14px;&quot; dir=&quot;ltr&quot;&gt;&lt;span style=&quot;font-size: 14px; font-family: Montserrat, sans-serif; color: rgb(255, 102, 51); background-color: transparent; font-variant-numeric: normal; font-variant-east-asian: normal; font-variant-alternates: normal; font-variant-position: normal; vertical-align: baseline;&quot;&gt;&lt;br style=&quot;font-size: 14px;&quot;&gt;&lt;/span&gt;&lt;/p&gt;&lt;/span&gt;" style="text;html=1;strokeColor=none;fillColor=none;align=center;verticalAlign=middle;whiteSpace=wrap;rounded=0;fontSize=14;" parent="1" vertex="1">
                    <mxGeometry x="561" y="328" width="124" height="30" as="geometry"/>
                </mxCell>
                <mxCell id="20" style="edgeStyle=none;html=1;entryX=0.75;entryY=0;entryDx=0;entryDy=0;fontFamily=Verdana;fontSize=14;fontColor=#FFFFFF;exitX=1;exitY=0;exitDx=0;exitDy=0;" parent="1" source="eEjcCwT-WWLBCNDeV5EP-17" target="19" edge="1">
                    <mxGeometry relative="1" as="geometry">
                        <mxPoint x="118" y="390" as="sourcePoint"/>
                        <Array as="points">
                            <mxPoint x="120" y="380"/>
                        </Array>
                    </mxGeometry>
                </mxCell>
                <mxCell id="eEjcCwT-WWLBCNDeV5EP-17" value="&lt;font color=&quot;#ffffff&quot;&gt;BANCO&lt;/font&gt;" style="rounded=1;whiteSpace=wrap;html=1;fillColor=none;fontColor=#000000;strokeColor=#B09500;strokeWidth=2;fontFamily=Verdana;" parent="1" vertex="1">
                    <mxGeometry x="28" y="377" width="72" height="20" as="geometry"/>
                </mxCell>
                <mxCell id="eEjcCwT-WWLBCNDeV5EP-20" value="&lt;b id=&quot;docs-internal-guid-3bc5b63c-7fff-c045-34d9-1487bc46b129&quot; style=&quot;font-weight: normal; font-size: 14px;&quot;&gt;&lt;p style=&quot;line-height: 1.2; margin-top: 0pt; margin-bottom: 0pt; font-size: 14px;&quot; dir=&quot;ltr&quot;&gt;&lt;span style=&quot;font-size: 14px; font-family: Montserrat, sans-serif; color: rgb(255, 153, 0); background-color: transparent; font-weight: 400; font-style: normal; font-variant: normal; text-decoration: none; vertical-align: baseline;&quot;&gt;Compartment (Root)&lt;/span&gt;&lt;/p&gt;&lt;/b&gt;" style="text;html=1;strokeColor=none;fillColor=none;align=center;verticalAlign=middle;whiteSpace=wrap;rounded=0;strokeWidth=2;fontSize=14;" parent="1" vertex="1">
                    <mxGeometry x="-102" y="445" width="124.5" height="30" as="geometry"/>
                </mxCell>
                <mxCell id="eEjcCwT-WWLBCNDeV5EP-21" value="" style="shape=curlyBracket;whiteSpace=wrap;html=1;rounded=1;labelPosition=left;verticalLabelPosition=middle;align=right;verticalAlign=middle;strokeWidth=2;fillColor=none;" parent="1" vertex="1">
                    <mxGeometry x="8" y="370" width="20" height="160" as="geometry"/>
                </mxCell>
                <mxCell id="eEjcCwT-WWLBCNDeV5EP-22" value="MARTER ACCOUT" style="text;html=1;strokeColor=none;fillColor=none;align=center;verticalAlign=middle;whiteSpace=wrap;rounded=0;strokeWidth=2;" parent="1" vertex="1">
                    <mxGeometry x="63" y="170" width="180" height="30" as="geometry"/>
                </mxCell>
                <mxCell id="eEjcCwT-WWLBCNDeV5EP-35" value="" style="rounded=1;whiteSpace=wrap;html=1;strokeWidth=3;fillColor=#FFFFFF;fontColor=#ffffff;strokeColor=#B20000;" parent="1" vertex="1">
                    <mxGeometry x="193" y="195" width="290" height="60" as="geometry"/>
                </mxCell>
                <mxCell id="eEjcCwT-WWLBCNDeV5EP-36" value="&lt;span id=&quot;docs-internal-guid-a47826a4-7fff-4ab3-2c1e-8c7ac44b4d22&quot; style=&quot;font-size: 19px;&quot;&gt;&lt;p style=&quot;line-height: 1.2; margin-top: 0pt; margin-bottom: 0pt; font-size: 19px;&quot; dir=&quot;ltr&quot;&gt;&lt;span style=&quot;font-size: 19px; font-family: Montserrat, sans-serif; color: rgb(227, 6, 19); background-color: transparent; font-variant-numeric: normal; font-variant-east-asian: normal; font-variant-alternates: normal; font-variant-position: normal; vertical-align: baseline;&quot;&gt;&amp;nbsp;(Parent Tenancy)&lt;/span&gt;&lt;/p&gt;&lt;div style=&quot;font-size: 19px;&quot;&gt;&lt;span style=&quot;font-size: 19px; font-family: Montserrat, sans-serif; color: rgb(227, 6, 19); background-color: transparent; font-variant-numeric: normal; font-variant-east-asian: normal; font-variant-alternates: normal; font-variant-position: normal; vertical-align: baseline;&quot;&gt;&lt;br style=&quot;font-size: 19px;&quot;&gt;&lt;/span&gt;&lt;/div&gt;&lt;/span&gt;" style="text;html=1;strokeColor=none;fillColor=none;align=center;verticalAlign=middle;whiteSpace=wrap;rounded=0;strokeWidth=3;fontStyle=1;fontSize=19;" parent="1" vertex="1">
                    <mxGeometry x="178" y="210" width="320" height="40" as="geometry"/>
                </mxCell>
                <mxCell id="19" value="&lt;font color=&quot;#ffffff&quot;&gt;BANCO_1&lt;/font&gt;" style="rounded=1;whiteSpace=wrap;html=1;fillColor=none;fontColor=#000000;strokeColor=#B09500;strokeWidth=2;fontFamily=Verdana;" parent="1" vertex="1">
                    <mxGeometry x="58" y="401" width="80" height="20" as="geometry"/>
                </mxCell>
                <mxCell id="23" value="&lt;font style=&quot;font-size: 11px;&quot; color=&quot;#ffffff&quot;&gt;APLICATION&lt;/font&gt;" style="rounded=1;whiteSpace=wrap;html=1;fillColor=none;fontColor=#000000;strokeColor=#B09500;strokeWidth=2;fontFamily=Verdana;" parent="1" vertex="1">
                    <mxGeometry x="28" y="431" width="72" height="20" as="geometry"/>
                </mxCell>
                <mxCell id="24" value="&lt;font style=&quot;font-size: 11px;&quot; color=&quot;#ffffff&quot;&gt;APLICATION_1&lt;/font&gt;" style="rounded=1;whiteSpace=wrap;html=1;fillColor=none;fontColor=#000000;strokeColor=#B09500;strokeWidth=2;fontFamily=Verdana;" parent="1" vertex="1">
                    <mxGeometry x="58" y="455" width="80" height="20" as="geometry"/>
                </mxCell>
                <mxCell id="25" value="&lt;font color=&quot;#ffffff&quot;&gt;AUDIT&lt;/font&gt;" style="rounded=1;whiteSpace=wrap;html=1;fillColor=none;fontColor=#000000;strokeColor=#B09500;strokeWidth=2;fontFamily=Verdana;" parent="1" vertex="1">
                    <mxGeometry x="28" y="486" width="72" height="20" as="geometry"/>
                </mxCell>
                <mxCell id="26" value="&lt;font color=&quot;#ffffff&quot;&gt;AUDIT_1&lt;/font&gt;" style="rounded=1;whiteSpace=wrap;html=1;fillColor=none;fontColor=#000000;strokeColor=#B09500;strokeWidth=2;fontFamily=Verdana;" parent="1" vertex="1">
                    <mxGeometry x="58" y="510" width="80" height="20" as="geometry"/>
                </mxCell>
                <mxCell id="29" value="&lt;font color=&quot;#ffffff&quot;&gt;BANCO&lt;/font&gt;" style="rounded=1;whiteSpace=wrap;html=1;fillColor=none;fontColor=#000000;strokeColor=#B09500;strokeWidth=2;fontFamily=Verdana;" parent="1" vertex="1">
                    <mxGeometry x="330" y="368" width="72" height="20" as="geometry"/>
                </mxCell>
                <mxCell id="30" value="&lt;b id=&quot;docs-internal-guid-3bc5b63c-7fff-c045-34d9-1487bc46b129&quot; style=&quot;font-weight: normal; font-size: 14px;&quot;&gt;&lt;p style=&quot;line-height: 1.2; margin-top: 0pt; margin-bottom: 0pt; font-size: 14px;&quot; dir=&quot;ltr&quot;&gt;&lt;span style=&quot;font-size: 14px; font-family: Montserrat, sans-serif; color: rgb(255, 153, 0); background-color: transparent; font-weight: 400; font-style: normal; font-variant: normal; text-decoration: none; vertical-align: baseline;&quot;&gt;Compartment (Root)&lt;/span&gt;&lt;/p&gt;&lt;/b&gt;" style="text;html=1;strokeColor=none;fillColor=none;align=center;verticalAlign=middle;whiteSpace=wrap;rounded=0;strokeWidth=2;fontSize=14;" parent="1" vertex="1">
                    <mxGeometry x="200" y="436" width="124.5" height="30" as="geometry"/>
                </mxCell>
                <mxCell id="31" value="" style="shape=curlyBracket;whiteSpace=wrap;html=1;rounded=1;labelPosition=left;verticalLabelPosition=middle;align=right;verticalAlign=middle;strokeWidth=2;fillColor=none;" parent="1" vertex="1">
                    <mxGeometry x="310" y="361" width="20" height="160" as="geometry"/>
                </mxCell>
                <mxCell id="32" value="&lt;font color=&quot;#ffffff&quot;&gt;BANCO_1&lt;/font&gt;" style="rounded=1;whiteSpace=wrap;html=1;fillColor=none;fontColor=#000000;strokeColor=#B09500;strokeWidth=2;fontFamily=Verdana;" parent="1" vertex="1">
                    <mxGeometry x="360" y="392" width="80" height="20" as="geometry"/>
                </mxCell>
                <mxCell id="33" value="&lt;font style=&quot;font-size: 11px;&quot; color=&quot;#ffffff&quot;&gt;APLICATION&lt;/font&gt;" style="rounded=1;whiteSpace=wrap;html=1;fillColor=none;fontColor=#000000;strokeColor=#B09500;strokeWidth=2;fontFamily=Verdana;" parent="1" vertex="1">
                    <mxGeometry x="330" y="422" width="72" height="20" as="geometry"/>
                </mxCell>
                <mxCell id="34" value="&lt;font style=&quot;font-size: 11px;&quot; color=&quot;#ffffff&quot;&gt;APLICATION_1&lt;/font&gt;" style="rounded=1;whiteSpace=wrap;html=1;fillColor=none;fontColor=#000000;strokeColor=#B09500;strokeWidth=2;fontFamily=Verdana;" parent="1" vertex="1">
                    <mxGeometry x="360" y="446" width="80" height="20" as="geometry"/>
                </mxCell>
                <mxCell id="35" value="&lt;font color=&quot;#ffffff&quot;&gt;AUDIT&lt;/font&gt;" style="rounded=1;whiteSpace=wrap;html=1;fillColor=none;fontColor=#000000;strokeColor=#B09500;strokeWidth=2;fontFamily=Verdana;" parent="1" vertex="1">
                    <mxGeometry x="330" y="477" width="72" height="20" as="geometry"/>
                </mxCell>
                <mxCell id="36" value="&lt;font color=&quot;#ffffff&quot;&gt;AUDIT_1&lt;/font&gt;" style="rounded=1;whiteSpace=wrap;html=1;fillColor=none;fontColor=#000000;strokeColor=#B09500;strokeWidth=2;fontFamily=Verdana;" parent="1" vertex="1">
                    <mxGeometry x="360" y="501" width="80" height="20" as="geometry"/>
                </mxCell>
                <mxCell id="37" value="&lt;font color=&quot;#ffffff&quot;&gt;BANCO&lt;/font&gt;" style="rounded=1;whiteSpace=wrap;html=1;fillColor=none;fontColor=#000000;strokeColor=#B09500;strokeWidth=2;fontFamily=Verdana;" parent="1" vertex="1">
                    <mxGeometry x="628" y="368" width="72" height="20" as="geometry"/>
                </mxCell>
                <mxCell id="38" value="&lt;b id=&quot;docs-internal-guid-3bc5b63c-7fff-c045-34d9-1487bc46b129&quot; style=&quot;font-weight: normal; font-size: 14px;&quot;&gt;&lt;p style=&quot;line-height: 1.2; margin-top: 0pt; margin-bottom: 0pt; font-size: 14px;&quot; dir=&quot;ltr&quot;&gt;&lt;span style=&quot;font-size: 14px; font-family: Montserrat, sans-serif; color: rgb(255, 153, 0); background-color: transparent; font-weight: 400; font-style: normal; font-variant: normal; text-decoration: none; vertical-align: baseline;&quot;&gt;Compartment (Root)&lt;/span&gt;&lt;/p&gt;&lt;/b&gt;" style="text;html=1;strokeColor=none;fillColor=none;align=center;verticalAlign=middle;whiteSpace=wrap;rounded=0;strokeWidth=2;fontSize=14;" parent="1" vertex="1">
                    <mxGeometry x="498" y="436" width="124.5" height="30" as="geometry"/>
                </mxCell>
                <mxCell id="39" value="" style="shape=curlyBracket;whiteSpace=wrap;html=1;rounded=1;labelPosition=left;verticalLabelPosition=middle;align=right;verticalAlign=middle;strokeWidth=2;fillColor=none;" parent="1" vertex="1">
                    <mxGeometry x="608" y="361" width="20" height="160" as="geometry"/>
                </mxCell>
                <mxCell id="40" value="&lt;font color=&quot;#ffffff&quot;&gt;BANCO_1&lt;/font&gt;" style="rounded=1;whiteSpace=wrap;html=1;fillColor=none;fontColor=#000000;strokeColor=#B09500;strokeWidth=2;fontFamily=Verdana;" parent="1" vertex="1">
                    <mxGeometry x="658" y="392" width="80" height="20" as="geometry"/>
                </mxCell>
                <mxCell id="41" value="&lt;font style=&quot;font-size: 11px;&quot; color=&quot;#ffffff&quot;&gt;APLICATION&lt;/font&gt;" style="rounded=1;whiteSpace=wrap;html=1;fillColor=none;fontColor=#000000;strokeColor=#B09500;strokeWidth=2;fontFamily=Verdana;" parent="1" vertex="1">
                    <mxGeometry x="628" y="422" width="72" height="20" as="geometry"/>
                </mxCell>
                <mxCell id="42" value="&lt;font style=&quot;font-size: 11px;&quot; color=&quot;#ffffff&quot;&gt;APLICATION_1&lt;/font&gt;" style="rounded=1;whiteSpace=wrap;html=1;fillColor=none;fontColor=#000000;strokeColor=#B09500;strokeWidth=2;fontFamily=Verdana;" parent="1" vertex="1">
                    <mxGeometry x="658" y="446" width="80" height="20" as="geometry"/>
                </mxCell>
                <mxCell id="43" value="&lt;font color=&quot;#ffffff&quot;&gt;AUDIT&lt;/font&gt;" style="rounded=1;whiteSpace=wrap;html=1;fillColor=none;fontColor=#000000;strokeColor=#B09500;strokeWidth=2;fontFamily=Verdana;" parent="1" vertex="1">
                    <mxGeometry x="628" y="477" width="72" height="20" as="geometry"/>
                </mxCell>
                <mxCell id="44" value="&lt;font color=&quot;#ffffff&quot;&gt;AUDIT_1&lt;/font&gt;" style="rounded=1;whiteSpace=wrap;html=1;fillColor=none;fontColor=#000000;strokeColor=#B09500;strokeWidth=2;fontFamily=Verdana;" parent="1" vertex="1">
                    <mxGeometry x="658" y="501" width="80" height="20" as="geometry"/>
                </mxCell>
                <mxCell id="3c5btsWGo0mPK0tM8FJX-44" style="edgeStyle=none;html=1;fontFamily=Verdana;fontSize=13;fontColor=#da7a0b;entryX=0.25;entryY=0;entryDx=0;entryDy=0;" parent="1" target="eEjcCwT-WWLBCNDeV5EP-22" edge="1">
                    <mxGeometry relative="1" as="geometry">
                        <mxPoint x="-70" y="80" as="targetPoint"/>
                        <Array as="points">
                            <mxPoint x="80"/>
                        </Array>
                        <mxPoint x="80" as="sourcePoint"/>
                    </mxGeometry>
                </mxCell>
                <mxCell id="3c5btsWGo0mPK0tM8FJX-45" value="&lt;meta charset=&quot;utf-8&quot;&gt;&lt;b id=&quot;docs-internal-guid-2907e48a-7fff-9a34-469a-3a3c9f60f298&quot; style=&quot;font-weight:normal;&quot;&gt;&lt;img src=&quot;https://lh7-us.googleusercontent.com/pILAxP_Q25JATWh8FZdUC0NEAK7YiObfks5TOgXcwuJidRdwa_uNm9ER_8XBDOeT5w5grtwEJO8OdZDWz4YgChPJCJxEZGJ2wn-WS-2y51d9Q9acsHFTm_rYyxDPut_LkFdv8mA7B3Xly_O3NO0FYp3isA=s2048&quot; height=&quot;57px;&quot; width=&quot;198px;&quot;&gt;&lt;/b&gt;" style="text;whiteSpace=wrap;html=1;fontSize=11;fontFamily=Verdana;fontColor=#da7a0b;" parent="1" vertex="1">
                    <mxGeometry x="-29.5" y="-50" width="189.5" height="60" as="geometry"/>
                </mxCell>
                <mxCell id="3c5btsWGo0mPK0tM8FJX-46" style="edgeStyle=none;html=1;entryX=0.304;entryY=-0.012;entryDx=0;entryDy=0;entryPerimeter=0;fontFamily=Verdana;fontSize=13;fontColor=#da7a0b;" parent="1" source="3c5btsWGo0mPK0tM8FJX-47" target="3c5btsWGo0mPK0tM8FJX-45" edge="1">
                    <mxGeometry relative="1" as="geometry"/>
                </mxCell>
                <mxCell id="3c5btsWGo0mPK0tM8FJX-47" value="" style="shape=ext;double=1;rounded=1;whiteSpace=wrap;html=1;labelBorderColor=#CC6600;strokeColor=#C4C1BD;fontFamily=Verdana;fontSize=11;fontColor=#da7a0b;" parent="1" vertex="1">
                    <mxGeometry x="-110" y="-170" width="280" height="60" as="geometry"/>
                </mxCell>
                <mxCell id="3c5btsWGo0mPK0tM8FJX-48" value="&lt;meta charset=&quot;utf-8&quot;&gt;&lt;b id=&quot;docs-internal-guid-b1157c10-7fff-f48c-381c-91cf66b51c12&quot; style=&quot;font-weight:normal;&quot;&gt;&lt;img src=&quot;https://lh7-us.googleusercontent.com/XBUWJAQ4RxeMx2p4LE6fTXS12f-qG9EBVA1sFKwlMqX6tsMHcnFoDtItSj9BPpDtPOkl7EpylkazBpulrZOdvKVd2sQRGrZZ1k64L9DXKjPnaUaNF-5UA71He_x-I-WOPFn6Ctz_9JegVhs-X0TxgrKJjw=s2048&quot; height=&quot;41px;&quot; width=&quot;69px;&quot;&gt;&lt;/b&gt;" style="text;whiteSpace=wrap;html=1;fontSize=11;fontFamily=Verdana;fontColor=#da7a0b;" parent="1" vertex="1">
                    <mxGeometry x="100" y="-166" width="100" height="70" as="geometry"/>
                </mxCell>
                <mxCell id="3c5btsWGo0mPK0tM8FJX-49" value="&lt;meta charset=&quot;utf-8&quot; style=&quot;font-size: 13px;&quot;&gt;&lt;b id=&quot;docs-internal-guid-e88ece0c-7fff-4347-3951-f6b9d227c91a&quot; style=&quot;font-weight: normal; font-size: 13px;&quot;&gt;&lt;p style=&quot;line-height: 1.38; margin-top: 0pt; margin-bottom: 0pt; font-size: 13px;&quot; dir=&quot;ltr&quot;&gt;&lt;span style=&quot;font-size: 13px; font-family: Montserrat, sans-serif; color: rgb(255, 255, 255); background-color: transparent; font-weight: 400; font-style: normal; font-variant: normal; text-decoration: none; vertical-align: baseline;&quot;&gt;Corporate&amp;nbsp;&amp;nbsp;&lt;/span&gt;&lt;/p&gt;&lt;p style=&quot;line-height: 1.38; margin-top: 0pt; margin-bottom: 0pt; font-size: 13px;&quot; dir=&quot;ltr&quot;&gt;&lt;span style=&quot;font-size: 13px; font-family: Montserrat, sans-serif; color: rgb(255, 255, 255); background-color: transparent; font-weight: 400; font-style: normal; font-variant: normal; text-decoration: none; vertical-align: baseline;&quot;&gt;Data Center&lt;/span&gt;&lt;/p&gt;&lt;/b&gt;&lt;br class=&quot;Apple-interchange-newline&quot; style=&quot;font-size: 13px;&quot;&gt;" style="text;whiteSpace=wrap;html=1;fontSize=13;fontFamily=Verdana;fontColor=#da7a0b;" parent="1" vertex="1">
                    <mxGeometry x="-64.75" y="-160" width="90" height="70" as="geometry"/>
                </mxCell>
                <mxCell id="3c5btsWGo0mPK0tM8FJX-50" value="&lt;meta charset=&quot;utf-8&quot; style=&quot;font-size: 13px;&quot;&gt;&lt;b id=&quot;docs-internal-guid-e88ece0c-7fff-4347-3951-f6b9d227c91a&quot; style=&quot;font-weight: normal; font-size: 13px;&quot;&gt;&lt;p style=&quot;line-height: 1.38; margin-top: 0pt; margin-bottom: 0pt; font-size: 13px;&quot; dir=&quot;ltr&quot;&gt;&lt;span style=&quot;font-size: 13px; font-family: Montserrat, sans-serif; color: rgb(255, 255, 255); background-color: transparent; font-weight: 400; font-style: normal; font-variant: normal; text-decoration: none; vertical-align: baseline;&quot;&gt;Corporate&amp;nbsp;&amp;nbsp;&lt;/span&gt;&lt;/p&gt;&lt;p style=&quot;line-height: 1.38; margin-top: 0pt; margin-bottom: 0pt; font-size: 13px;&quot; dir=&quot;ltr&quot;&gt;&lt;span style=&quot;font-size: 13px; font-family: Montserrat, sans-serif; color: rgb(255, 255, 255); background-color: transparent; font-weight: 400; font-style: normal; font-variant: normal; text-decoration: none; vertical-align: baseline;&quot;&gt;Data Center&lt;/span&gt;&lt;/p&gt;&lt;/b&gt;&lt;br class=&quot;Apple-interchange-newline&quot; style=&quot;font-size: 13px;&quot;&gt;" style="text;whiteSpace=wrap;html=1;fontSize=13;fontFamily=Verdana;fontColor=#da7a0b;" parent="1" vertex="1">
                    <mxGeometry x="20.5" y="-160" width="90" height="70" as="geometry"/>
                </mxCell>
                <mxCell id="3c5btsWGo0mPK0tM8FJX-51" value="&lt;meta charset=&quot;utf-8&quot;&gt;&lt;b id=&quot;docs-internal-guid-cf12201a-7fff-9905-0576-1f05a2af6ea7&quot; style=&quot;font-weight:normal;&quot;&gt;&lt;img src=&quot;https://lh7-us.googleusercontent.com/CO76nrKHnoK7_rwvdg65pQLFi3hU_MbncJSdASKYTuBERG4x-mvbt2Jk7sc94RO8_0JUU4FIPf7B27v-r8krJFpVTPbw-RfdMHdrcpCt8A5bSY0Ig-iR8RtdnzTmtglOovw2U5weonCFI8tS-kNZZZBgFA=s2048&quot; height=&quot;25px;&quot; width=&quot;25px;&quot;&gt;&lt;/b&gt;" style="text;whiteSpace=wrap;html=1;fontSize=11;fontFamily=Verdana;fontColor=#da7a0b;" parent="1" vertex="1">
                    <mxGeometry x="-100" y="-170" width="60" height="50" as="geometry"/>
                </mxCell>
                <mxCell id="r6Ds9A2htb6F8QyE_iXC-44" value="Governance roles acess&amp;nbsp;" style="text;html=1;strokeColor=none;fillColor=none;align=center;verticalAlign=middle;whiteSpace=wrap;rounded=0;" parent="1" vertex="1">
                    <mxGeometry x="-40" y="195" width="70" height="30" as="geometry"/>
                </mxCell>
            </root>
        </mxGraphModel>
    </diagram>
    <diagram id="LJOu6ubrf1RBLY2LWY1Z" name="oci_provider_itau">
        <mxGraphModel dx="1983" dy="686" grid="1" gridSize="10" guides="1" tooltips="1" connect="1" arrows="1" fold="1" page="0" pageScale="1" pageWidth="827" pageHeight="1169" math="0" shadow="0">
            <root>
                <mxCell id="0"/>
                <mxCell id="1" parent="0"/>
                <mxCell id="7lN0mLOwMNB2POMIY36Z-1" value="" style="rounded=0;whiteSpace=wrap;html=1;" parent="1" vertex="1">
                    <mxGeometry x="-380" y="585" width="920" height="360" as="geometry"/>
                </mxCell>
                <mxCell id="7lN0mLOwMNB2POMIY36Z-3" value="" style="rounded=0;whiteSpace=wrap;html=1;fillColor=none;fontColor=#000000;strokeColor=#C73500;strokeWidth=6;" parent="1" vertex="1">
                    <mxGeometry x="-350" y="665" width="260.5" height="240" as="geometry"/>
                </mxCell>
                <mxCell id="7lN0mLOwMNB2POMIY36Z-13" value="" style="rounded=0;whiteSpace=wrap;html=1;fillColor=none;fontColor=#000000;strokeColor=#C73500;strokeWidth=6;" parent="1" vertex="1">
                    <mxGeometry x="-50.25" y="665" width="260.5" height="240" as="geometry"/>
                </mxCell>
                <mxCell id="7lN0mLOwMNB2POMIY36Z-14" value="" style="rounded=0;whiteSpace=wrap;html=1;fillColor=none;fontColor=#000000;strokeColor=#C73500;strokeWidth=6;" parent="1" vertex="1">
                    <mxGeometry x="249.75" y="665" width="260.5" height="240" as="geometry"/>
                </mxCell>
                <mxCell id="7lN0mLOwMNB2POMIY36Z-15" value="TENANCY OCI -VPC (VINHEDO)" style="text;html=1;strokeColor=none;fillColor=none;align=center;verticalAlign=middle;whiteSpace=wrap;rounded=0;strokeWidth=2;" parent="1" vertex="1">
                    <mxGeometry x="-381.75" y="585" width="310" height="30" as="geometry"/>
                </mxCell>
                <mxCell id="7lN0mLOwMNB2POMIY36Z-12" value="&lt;span id=&quot;docs-internal-guid-a47826a4-7fff-4ab3-2c1e-8c7ac44b4d22&quot; style=&quot;font-size: 16px;&quot;&gt;&lt;p style=&quot;line-height: 1.2; margin-top: 0pt; margin-bottom: 0pt; font-size: 16px;&quot; dir=&quot;ltr&quot;&gt;&lt;font face=&quot;Montserrat, sans-serif&quot; color=&quot;#e30613&quot; style=&quot;font-size: 16px;&quot;&gt;IDENTITY DOMAIN (PROD)&lt;/font&gt;&lt;/p&gt;&lt;/span&gt;" style="text;html=1;strokeColor=none;fillColor=none;align=center;verticalAlign=middle;whiteSpace=wrap;rounded=0;strokeWidth=3;fontStyle=1;fontSize=16;" parent="1" vertex="1">
                    <mxGeometry x="-379.75" y="665" width="320" height="40" as="geometry"/>
                </mxCell>
                <mxCell id="7lN0mLOwMNB2POMIY36Z-16" value="&lt;span id=&quot;docs-internal-guid-a47826a4-7fff-4ab3-2c1e-8c7ac44b4d22&quot; style=&quot;font-size: 16px;&quot;&gt;&lt;p style=&quot;line-height: 1.2; margin-top: 0pt; margin-bottom: 0pt; font-size: 16px;&quot; dir=&quot;ltr&quot;&gt;&lt;font face=&quot;Montserrat, sans-serif&quot; color=&quot;#e30613&quot; style=&quot;font-size: 16px;&quot;&gt;IDENTITY DOMAIN (DEV)&lt;/font&gt;&lt;/p&gt;&lt;/span&gt;" style="text;html=1;strokeColor=none;fillColor=none;align=center;verticalAlign=middle;whiteSpace=wrap;rounded=0;strokeWidth=3;fontStyle=1;fontSize=16;" parent="1" vertex="1">
                    <mxGeometry x="-80" y="665" width="320" height="40" as="geometry"/>
                </mxCell>
                <mxCell id="7lN0mLOwMNB2POMIY36Z-17" value="&lt;span id=&quot;docs-internal-guid-a47826a4-7fff-4ab3-2c1e-8c7ac44b4d22&quot; style=&quot;font-size: 16px;&quot;&gt;&lt;p style=&quot;line-height: 1.2; margin-top: 0pt; margin-bottom: 0pt; font-size: 16px;&quot; dir=&quot;ltr&quot;&gt;&lt;font face=&quot;Montserrat, sans-serif&quot; color=&quot;#e30613&quot; style=&quot;font-size: 16px;&quot;&gt;IDENTITY DOMAIN (STG)&lt;/font&gt;&lt;/p&gt;&lt;/span&gt;" style="text;html=1;strokeColor=none;fillColor=none;align=center;verticalAlign=middle;whiteSpace=wrap;rounded=0;strokeWidth=3;fontStyle=1;fontSize=16;" parent="1" vertex="1">
                    <mxGeometry x="220" y="665" width="320" height="40" as="geometry"/>
                </mxCell>
                <mxCell id="eXu3_KGUznA1Icz2X5bv-9" value="&lt;font color=&quot;#ffffff&quot;&gt;BANCO&lt;/font&gt;" style="rounded=1;whiteSpace=wrap;html=1;fillColor=none;fontColor=#000000;strokeColor=#B09500;strokeWidth=2;fontFamily=Verdana;" parent="1" vertex="1">
                    <mxGeometry x="-212.75" y="712" width="72" height="20" as="geometry"/>
                </mxCell>
                <mxCell id="eXu3_KGUznA1Icz2X5bv-10" value="&lt;b id=&quot;docs-internal-guid-3bc5b63c-7fff-c045-34d9-1487bc46b129&quot; style=&quot;font-weight: normal; font-size: 14px;&quot;&gt;&lt;p style=&quot;line-height: 1.2; margin-top: 0pt; margin-bottom: 0pt; font-size: 14px;&quot; dir=&quot;ltr&quot;&gt;&lt;span style=&quot;font-size: 14px; font-family: Montserrat, sans-serif; color: rgb(255, 153, 0); background-color: transparent; font-weight: 400; font-style: normal; font-variant: normal; text-decoration: none; vertical-align: baseline;&quot;&gt;Compartment (Root)&lt;/span&gt;&lt;/p&gt;&lt;/b&gt;" style="text;html=1;strokeColor=none;fillColor=none;align=center;verticalAlign=middle;whiteSpace=wrap;rounded=0;strokeWidth=2;fontSize=14;" parent="1" vertex="1">
                    <mxGeometry x="-342.75" y="780" width="124.5" height="30" as="geometry"/>
                </mxCell>
                <mxCell id="eXu3_KGUznA1Icz2X5bv-11" value="" style="shape=curlyBracket;whiteSpace=wrap;html=1;rounded=1;labelPosition=left;verticalLabelPosition=middle;align=right;verticalAlign=middle;strokeWidth=2;fillColor=none;" parent="1" vertex="1">
                    <mxGeometry x="-232.75" y="705" width="20" height="160" as="geometry"/>
                </mxCell>
                <mxCell id="eXu3_KGUznA1Icz2X5bv-12" value="&lt;font color=&quot;#ffffff&quot;&gt;BANCO_1&lt;/font&gt;" style="rounded=1;whiteSpace=wrap;html=1;fillColor=none;fontColor=#000000;strokeColor=#B09500;strokeWidth=2;fontFamily=Verdana;" parent="1" vertex="1">
                    <mxGeometry x="-182.75" y="736" width="80" height="20" as="geometry"/>
                </mxCell>
                <mxCell id="eXu3_KGUznA1Icz2X5bv-13" value="&lt;font style=&quot;font-size: 11px;&quot; color=&quot;#ffffff&quot;&gt;APLICATION&lt;/font&gt;" style="rounded=1;whiteSpace=wrap;html=1;fillColor=none;fontColor=#000000;strokeColor=#B09500;strokeWidth=2;fontFamily=Verdana;" parent="1" vertex="1">
                    <mxGeometry x="-212.75" y="766" width="72" height="20" as="geometry"/>
                </mxCell>
                <mxCell id="eXu3_KGUznA1Icz2X5bv-14" value="&lt;font style=&quot;font-size: 11px;&quot; color=&quot;#ffffff&quot;&gt;APLICATION_1&lt;/font&gt;" style="rounded=1;whiteSpace=wrap;html=1;fillColor=none;fontColor=#000000;strokeColor=#B09500;strokeWidth=2;fontFamily=Verdana;" parent="1" vertex="1">
                    <mxGeometry x="-182.75" y="790" width="80" height="20" as="geometry"/>
                </mxCell>
                <mxCell id="eXu3_KGUznA1Icz2X5bv-15" value="&lt;font color=&quot;#ffffff&quot;&gt;AUDIT&lt;/font&gt;" style="rounded=1;whiteSpace=wrap;html=1;fillColor=none;fontColor=#000000;strokeColor=#B09500;strokeWidth=2;fontFamily=Verdana;" parent="1" vertex="1">
                    <mxGeometry x="-212.75" y="821" width="72" height="20" as="geometry"/>
                </mxCell>
                <mxCell id="eXu3_KGUznA1Icz2X5bv-16" value="&lt;font color=&quot;#ffffff&quot;&gt;AUDIT_1&lt;/font&gt;" style="rounded=1;whiteSpace=wrap;html=1;fillColor=none;fontColor=#000000;strokeColor=#B09500;strokeWidth=2;fontFamily=Verdana;" parent="1" vertex="1">
                    <mxGeometry x="-182.75" y="845" width="80" height="20" as="geometry"/>
                </mxCell>
                <mxCell id="eXu3_KGUznA1Icz2X5bv-17" value="&lt;font color=&quot;#ffffff&quot;&gt;BANCO&lt;/font&gt;" style="rounded=1;whiteSpace=wrap;html=1;fillColor=none;fontColor=#000000;strokeColor=#B09500;strokeWidth=2;fontFamily=Verdana;" parent="1" vertex="1">
                    <mxGeometry x="79.75" y="719" width="72" height="20" as="geometry"/>
                </mxCell>
                <mxCell id="eXu3_KGUznA1Icz2X5bv-18" value="&lt;b id=&quot;docs-internal-guid-3bc5b63c-7fff-c045-34d9-1487bc46b129&quot; style=&quot;font-weight: normal; font-size: 14px;&quot;&gt;&lt;p style=&quot;line-height: 1.2; margin-top: 0pt; margin-bottom: 0pt; font-size: 14px;&quot; dir=&quot;ltr&quot;&gt;&lt;span style=&quot;font-size: 14px; font-family: Montserrat, sans-serif; color: rgb(255, 153, 0); background-color: transparent; font-weight: 400; font-style: normal; font-variant: normal; text-decoration: none; vertical-align: baseline;&quot;&gt;Compartment (Root)&lt;/span&gt;&lt;/p&gt;&lt;/b&gt;" style="text;html=1;strokeColor=none;fillColor=none;align=center;verticalAlign=middle;whiteSpace=wrap;rounded=0;strokeWidth=2;fontSize=14;" parent="1" vertex="1">
                    <mxGeometry x="-50.25" y="787" width="124.5" height="30" as="geometry"/>
                </mxCell>
                <mxCell id="eXu3_KGUznA1Icz2X5bv-19" value="" style="shape=curlyBracket;whiteSpace=wrap;html=1;rounded=1;labelPosition=left;verticalLabelPosition=middle;align=right;verticalAlign=middle;strokeWidth=2;fillColor=none;" parent="1" vertex="1">
                    <mxGeometry x="59.75" y="712" width="20" height="160" as="geometry"/>
                </mxCell>
                <mxCell id="eXu3_KGUznA1Icz2X5bv-20" value="&lt;font color=&quot;#ffffff&quot;&gt;BANCO_1&lt;/font&gt;" style="rounded=1;whiteSpace=wrap;html=1;fillColor=none;fontColor=#000000;strokeColor=#B09500;strokeWidth=2;fontFamily=Verdana;" parent="1" vertex="1">
                    <mxGeometry x="109.75" y="743" width="80" height="20" as="geometry"/>
                </mxCell>
                <mxCell id="eXu3_KGUznA1Icz2X5bv-21" value="&lt;font style=&quot;font-size: 11px;&quot; color=&quot;#ffffff&quot;&gt;APLICATION&lt;/font&gt;" style="rounded=1;whiteSpace=wrap;html=1;fillColor=none;fontColor=#000000;strokeColor=#B09500;strokeWidth=2;fontFamily=Verdana;" parent="1" vertex="1">
                    <mxGeometry x="79.75" y="773" width="72" height="20" as="geometry"/>
                </mxCell>
                <mxCell id="eXu3_KGUznA1Icz2X5bv-22" value="&lt;font style=&quot;font-size: 11px;&quot; color=&quot;#ffffff&quot;&gt;APLICATION_1&lt;/font&gt;" style="rounded=1;whiteSpace=wrap;html=1;fillColor=none;fontColor=#000000;strokeColor=#B09500;strokeWidth=2;fontFamily=Verdana;" parent="1" vertex="1">
                    <mxGeometry x="109.75" y="797" width="80" height="20" as="geometry"/>
                </mxCell>
                <mxCell id="eXu3_KGUznA1Icz2X5bv-23" value="&lt;font color=&quot;#ffffff&quot;&gt;AUDIT&lt;/font&gt;" style="rounded=1;whiteSpace=wrap;html=1;fillColor=none;fontColor=#000000;strokeColor=#B09500;strokeWidth=2;fontFamily=Verdana;" parent="1" vertex="1">
                    <mxGeometry x="79.75" y="828" width="72" height="20" as="geometry"/>
                </mxCell>
                <mxCell id="eXu3_KGUznA1Icz2X5bv-24" value="&lt;font color=&quot;#ffffff&quot;&gt;AUDIT_1&lt;/font&gt;" style="rounded=1;whiteSpace=wrap;html=1;fillColor=none;fontColor=#000000;strokeColor=#B09500;strokeWidth=2;fontFamily=Verdana;" parent="1" vertex="1">
                    <mxGeometry x="109.75" y="852" width="80" height="20" as="geometry"/>
                </mxCell>
                <mxCell id="eXu3_KGUznA1Icz2X5bv-25" value="&lt;font color=&quot;#ffffff&quot;&gt;BANCO&lt;/font&gt;" style="rounded=1;whiteSpace=wrap;html=1;fillColor=none;fontColor=#000000;strokeColor=#B09500;strokeWidth=2;fontFamily=Verdana;" parent="1" vertex="1">
                    <mxGeometry x="370" y="719" width="72" height="20" as="geometry"/>
                </mxCell>
                <mxCell id="eXu3_KGUznA1Icz2X5bv-26" value="&lt;b id=&quot;docs-internal-guid-3bc5b63c-7fff-c045-34d9-1487bc46b129&quot; style=&quot;font-weight: normal; font-size: 14px;&quot;&gt;&lt;p style=&quot;line-height: 1.2; margin-top: 0pt; margin-bottom: 0pt; font-size: 14px;&quot; dir=&quot;ltr&quot;&gt;&lt;span style=&quot;font-size: 14px; font-family: Montserrat, sans-serif; color: rgb(255, 153, 0); background-color: transparent; font-weight: 400; font-style: normal; font-variant: normal; text-decoration: none; vertical-align: baseline;&quot;&gt;Compartment (Root)&lt;/span&gt;&lt;/p&gt;&lt;/b&gt;" style="text;html=1;strokeColor=none;fillColor=none;align=center;verticalAlign=middle;whiteSpace=wrap;rounded=0;strokeWidth=2;fontSize=14;" parent="1" vertex="1">
                    <mxGeometry x="240" y="787" width="124.5" height="30" as="geometry"/>
                </mxCell>
                <mxCell id="eXu3_KGUznA1Icz2X5bv-27" value="" style="shape=curlyBracket;whiteSpace=wrap;html=1;rounded=1;labelPosition=left;verticalLabelPosition=middle;align=right;verticalAlign=middle;strokeWidth=2;fillColor=none;" parent="1" vertex="1">
                    <mxGeometry x="350" y="712" width="20" height="160" as="geometry"/>
                </mxCell>
                <mxCell id="eXu3_KGUznA1Icz2X5bv-28" value="&lt;font color=&quot;#ffffff&quot;&gt;BANCO_1&lt;/font&gt;" style="rounded=1;whiteSpace=wrap;html=1;fillColor=none;fontColor=#000000;strokeColor=#B09500;strokeWidth=2;fontFamily=Verdana;" parent="1" vertex="1">
                    <mxGeometry x="400" y="743" width="80" height="20" as="geometry"/>
                </mxCell>
                <mxCell id="eXu3_KGUznA1Icz2X5bv-29" value="&lt;font style=&quot;font-size: 11px;&quot; color=&quot;#ffffff&quot;&gt;APLICATION&lt;/font&gt;" style="rounded=1;whiteSpace=wrap;html=1;fillColor=none;fontColor=#000000;strokeColor=#B09500;strokeWidth=2;fontFamily=Verdana;" parent="1" vertex="1">
                    <mxGeometry x="370" y="773" width="72" height="20" as="geometry"/>
                </mxCell>
                <mxCell id="eXu3_KGUznA1Icz2X5bv-30" value="&lt;font style=&quot;font-size: 11px;&quot; color=&quot;#ffffff&quot;&gt;APLICATION_1&lt;/font&gt;" style="rounded=1;whiteSpace=wrap;html=1;fillColor=none;fontColor=#000000;strokeColor=#B09500;strokeWidth=2;fontFamily=Verdana;" parent="1" vertex="1">
                    <mxGeometry x="400" y="797" width="80" height="20" as="geometry"/>
                </mxCell>
                <mxCell id="eXu3_KGUznA1Icz2X5bv-31" value="&lt;font color=&quot;#ffffff&quot;&gt;AUDIT&lt;/font&gt;" style="rounded=1;whiteSpace=wrap;html=1;fillColor=none;fontColor=#000000;strokeColor=#B09500;strokeWidth=2;fontFamily=Verdana;" parent="1" vertex="1">
                    <mxGeometry x="370" y="828" width="72" height="20" as="geometry"/>
                </mxCell>
                <mxCell id="eXu3_KGUznA1Icz2X5bv-32" value="&lt;font color=&quot;#ffffff&quot;&gt;AUDIT_1&lt;/font&gt;" style="rounded=1;whiteSpace=wrap;html=1;fillColor=none;fontColor=#000000;strokeColor=#B09500;strokeWidth=2;fontFamily=Verdana;" parent="1" vertex="1">
                    <mxGeometry x="400" y="852" width="80" height="20" as="geometry"/>
                </mxCell>
                <mxCell id="eXu3_KGUznA1Icz2X5bv-33" value="" style="rounded=0;whiteSpace=wrap;html=1;" parent="1" vertex="1">
                    <mxGeometry x="-390.25" y="140" width="920" height="360" as="geometry"/>
                </mxCell>
                <mxCell id="eXu3_KGUznA1Icz2X5bv-65" style="edgeStyle=none;html=1;fontFamily=Verdana;fontSize=11;fontColor=#FFFFFF;exitX=0.5;exitY=1;exitDx=0;exitDy=0;" parent="1" source="eXu3_KGUznA1Icz2X5bv-34" edge="1">
                    <mxGeometry relative="1" as="geometry">
                        <mxPoint x="-220" y="450" as="sourcePoint"/>
                        <mxPoint x="-230" y="660" as="targetPoint"/>
                    </mxGeometry>
                </mxCell>
                <mxCell id="eXu3_KGUznA1Icz2X5bv-34" value="" style="rounded=0;whiteSpace=wrap;html=1;fillColor=none;fontColor=#000000;strokeColor=#C73500;strokeWidth=6;" parent="1" vertex="1">
                    <mxGeometry x="-360.25" y="220" width="260.5" height="240" as="geometry"/>
                </mxCell>
                <mxCell id="eXu3_KGUznA1Icz2X5bv-66" style="edgeStyle=none;html=1;entryX=0.466;entryY=0.018;entryDx=0;entryDy=0;entryPerimeter=0;fontFamily=Verdana;fontSize=11;fontColor=#FFFFFF;" parent="1" source="eXu3_KGUznA1Icz2X5bv-35" target="7lN0mLOwMNB2POMIY36Z-16" edge="1">
                    <mxGeometry relative="1" as="geometry"/>
                </mxCell>
                <mxCell id="eXu3_KGUznA1Icz2X5bv-35" value="" style="rounded=0;whiteSpace=wrap;html=1;fillColor=none;fontColor=#000000;strokeColor=#C73500;strokeWidth=6;" parent="1" vertex="1">
                    <mxGeometry x="-60.5" y="220" width="260.5" height="240" as="geometry"/>
                </mxCell>
                <mxCell id="eXu3_KGUznA1Icz2X5bv-67" style="edgeStyle=none;html=1;fontFamily=Verdana;fontSize=11;fontColor=#FFFFFF;" parent="1" source="eXu3_KGUznA1Icz2X5bv-36" target="7lN0mLOwMNB2POMIY36Z-17" edge="1">
                    <mxGeometry relative="1" as="geometry"/>
                </mxCell>
                <mxCell id="eXu3_KGUznA1Icz2X5bv-36" value="" style="rounded=0;whiteSpace=wrap;html=1;fillColor=none;fontColor=#000000;strokeColor=#C73500;strokeWidth=6;" parent="1" vertex="1">
                    <mxGeometry x="239.5" y="220" width="260.5" height="240" as="geometry"/>
                </mxCell>
                <mxCell id="eXu3_KGUznA1Icz2X5bv-37" value="TENANCY OCI -GRU (GUARULHOS)" style="text;html=1;strokeColor=none;fillColor=none;align=center;verticalAlign=middle;whiteSpace=wrap;rounded=0;strokeWidth=2;" parent="1" vertex="1">
                    <mxGeometry x="-385" y="140" width="310" height="30" as="geometry"/>
                </mxCell>
                <mxCell id="eXu3_KGUznA1Icz2X5bv-38" value="&lt;span id=&quot;docs-internal-guid-a47826a4-7fff-4ab3-2c1e-8c7ac44b4d22&quot; style=&quot;font-size: 16px;&quot;&gt;&lt;p style=&quot;line-height: 1.2; margin-top: 0pt; margin-bottom: 0pt; font-size: 16px;&quot; dir=&quot;ltr&quot;&gt;&lt;font face=&quot;Montserrat, sans-serif&quot; color=&quot;#e30613&quot; style=&quot;font-size: 16px;&quot;&gt;IDENTITY DOMAIN (PROD)&lt;/font&gt;&lt;/p&gt;&lt;/span&gt;" style="text;html=1;strokeColor=none;fillColor=none;align=center;verticalAlign=middle;whiteSpace=wrap;rounded=0;strokeWidth=3;fontStyle=1;fontSize=16;" parent="1" vertex="1">
                    <mxGeometry x="-390" y="220" width="320" height="40" as="geometry"/>
                </mxCell>
                <mxCell id="eXu3_KGUznA1Icz2X5bv-39" value="&lt;span id=&quot;docs-internal-guid-a47826a4-7fff-4ab3-2c1e-8c7ac44b4d22&quot; style=&quot;font-size: 16px;&quot;&gt;&lt;p style=&quot;line-height: 1.2; margin-top: 0pt; margin-bottom: 0pt; font-size: 16px;&quot; dir=&quot;ltr&quot;&gt;&lt;font face=&quot;Montserrat, sans-serif&quot; color=&quot;#e30613&quot; style=&quot;font-size: 16px;&quot;&gt;IDENTITY DOMAIN (DEV)&lt;/font&gt;&lt;/p&gt;&lt;/span&gt;" style="text;html=1;strokeColor=none;fillColor=none;align=center;verticalAlign=middle;whiteSpace=wrap;rounded=0;strokeWidth=3;fontStyle=1;fontSize=16;" parent="1" vertex="1">
                    <mxGeometry x="-90.25" y="220" width="320" height="40" as="geometry"/>
                </mxCell>
                <mxCell id="eXu3_KGUznA1Icz2X5bv-40" value="&lt;span id=&quot;docs-internal-guid-a47826a4-7fff-4ab3-2c1e-8c7ac44b4d22&quot; style=&quot;font-size: 16px;&quot;&gt;&lt;p style=&quot;line-height: 1.2; margin-top: 0pt; margin-bottom: 0pt; font-size: 16px;&quot; dir=&quot;ltr&quot;&gt;&lt;font face=&quot;Montserrat, sans-serif&quot; color=&quot;#e30613&quot; style=&quot;font-size: 16px;&quot;&gt;IDENTITY DOMAIN (STG)&lt;/font&gt;&lt;/p&gt;&lt;/span&gt;" style="text;html=1;strokeColor=none;fillColor=none;align=center;verticalAlign=middle;whiteSpace=wrap;rounded=0;strokeWidth=3;fontStyle=1;fontSize=16;" parent="1" vertex="1">
                    <mxGeometry x="209.75" y="220" width="320" height="40" as="geometry"/>
                </mxCell>
                <mxCell id="eXu3_KGUznA1Icz2X5bv-41" value="&lt;font color=&quot;#ffffff&quot;&gt;BANCO&lt;/font&gt;" style="rounded=1;whiteSpace=wrap;html=1;fillColor=none;fontColor=#000000;strokeColor=#B09500;strokeWidth=2;fontFamily=Verdana;" parent="1" vertex="1">
                    <mxGeometry x="-223" y="267" width="72" height="20" as="geometry"/>
                </mxCell>
                <mxCell id="eXu3_KGUznA1Icz2X5bv-42" value="&lt;b id=&quot;docs-internal-guid-3bc5b63c-7fff-c045-34d9-1487bc46b129&quot; style=&quot;font-weight: normal; font-size: 14px;&quot;&gt;&lt;p style=&quot;line-height: 1.2; margin-top: 0pt; margin-bottom: 0pt; font-size: 14px;&quot; dir=&quot;ltr&quot;&gt;&lt;span style=&quot;font-size: 14px; font-family: Montserrat, sans-serif; color: rgb(255, 153, 0); background-color: transparent; font-weight: 400; font-style: normal; font-variant: normal; text-decoration: none; vertical-align: baseline;&quot;&gt;Compartment (Root)&lt;/span&gt;&lt;/p&gt;&lt;/b&gt;" style="text;html=1;strokeColor=none;fillColor=none;align=center;verticalAlign=middle;whiteSpace=wrap;rounded=0;strokeWidth=2;fontSize=14;" parent="1" vertex="1">
                    <mxGeometry x="-353" y="335" width="124.5" height="30" as="geometry"/>
                </mxCell>
                <mxCell id="eXu3_KGUznA1Icz2X5bv-43" value="" style="shape=curlyBracket;whiteSpace=wrap;html=1;rounded=1;labelPosition=left;verticalLabelPosition=middle;align=right;verticalAlign=middle;strokeWidth=2;fillColor=none;" parent="1" vertex="1">
                    <mxGeometry x="-243" y="260" width="20" height="160" as="geometry"/>
                </mxCell>
                <mxCell id="eXu3_KGUznA1Icz2X5bv-44" value="&lt;font color=&quot;#ffffff&quot;&gt;BANCO_1&lt;/font&gt;" style="rounded=1;whiteSpace=wrap;html=1;fillColor=none;fontColor=#000000;strokeColor=#B09500;strokeWidth=2;fontFamily=Verdana;" parent="1" vertex="1">
                    <mxGeometry x="-193" y="291" width="80" height="20" as="geometry"/>
                </mxCell>
                <mxCell id="eXu3_KGUznA1Icz2X5bv-45" value="&lt;font style=&quot;font-size: 11px;&quot; color=&quot;#ffffff&quot;&gt;APLICATION&lt;/font&gt;" style="rounded=1;whiteSpace=wrap;html=1;fillColor=none;fontColor=#000000;strokeColor=#B09500;strokeWidth=2;fontFamily=Verdana;" parent="1" vertex="1">
                    <mxGeometry x="-223" y="321" width="72" height="20" as="geometry"/>
                </mxCell>
                <mxCell id="eXu3_KGUznA1Icz2X5bv-46" value="&lt;font style=&quot;font-size: 11px;&quot; color=&quot;#ffffff&quot;&gt;APLICATION_1&lt;/font&gt;" style="rounded=1;whiteSpace=wrap;html=1;fillColor=none;fontColor=#000000;strokeColor=#B09500;strokeWidth=2;fontFamily=Verdana;" parent="1" vertex="1">
                    <mxGeometry x="-193" y="345" width="80" height="20" as="geometry"/>
                </mxCell>
                <mxCell id="eXu3_KGUznA1Icz2X5bv-47" value="&lt;font color=&quot;#ffffff&quot;&gt;AUDIT&lt;/font&gt;" style="rounded=1;whiteSpace=wrap;html=1;fillColor=none;fontColor=#000000;strokeColor=#B09500;strokeWidth=2;fontFamily=Verdana;" parent="1" vertex="1">
                    <mxGeometry x="-223" y="376" width="72" height="20" as="geometry"/>
                </mxCell>
                <mxCell id="eXu3_KGUznA1Icz2X5bv-48" value="&lt;font color=&quot;#ffffff&quot;&gt;AUDIT_1&lt;/font&gt;" style="rounded=1;whiteSpace=wrap;html=1;fillColor=none;fontColor=#000000;strokeColor=#B09500;strokeWidth=2;fontFamily=Verdana;" parent="1" vertex="1">
                    <mxGeometry x="-193" y="400" width="80" height="20" as="geometry"/>
                </mxCell>
                <mxCell id="eXu3_KGUznA1Icz2X5bv-49" value="&lt;font color=&quot;#ffffff&quot;&gt;BANCO&lt;/font&gt;" style="rounded=1;whiteSpace=wrap;html=1;fillColor=none;fontColor=#000000;strokeColor=#B09500;strokeWidth=2;fontFamily=Verdana;" parent="1" vertex="1">
                    <mxGeometry x="69.5" y="274" width="72" height="20" as="geometry"/>
                </mxCell>
                <mxCell id="eXu3_KGUznA1Icz2X5bv-50" value="&lt;b id=&quot;docs-internal-guid-3bc5b63c-7fff-c045-34d9-1487bc46b129&quot; style=&quot;font-weight: normal; font-size: 14px;&quot;&gt;&lt;p style=&quot;line-height: 1.2; margin-top: 0pt; margin-bottom: 0pt; font-size: 14px;&quot; dir=&quot;ltr&quot;&gt;&lt;span style=&quot;font-size: 14px; font-family: Montserrat, sans-serif; color: rgb(255, 153, 0); background-color: transparent; font-weight: 400; font-style: normal; font-variant: normal; text-decoration: none; vertical-align: baseline;&quot;&gt;Compartment (Root)&lt;/span&gt;&lt;/p&gt;&lt;/b&gt;" style="text;html=1;strokeColor=none;fillColor=none;align=center;verticalAlign=middle;whiteSpace=wrap;rounded=0;strokeWidth=2;fontSize=14;" parent="1" vertex="1">
                    <mxGeometry x="-60.5" y="342" width="124.5" height="30" as="geometry"/>
                </mxCell>
                <mxCell id="eXu3_KGUznA1Icz2X5bv-51" value="" style="shape=curlyBracket;whiteSpace=wrap;html=1;rounded=1;labelPosition=left;verticalLabelPosition=middle;align=right;verticalAlign=middle;strokeWidth=2;fillColor=none;" parent="1" vertex="1">
                    <mxGeometry x="49.5" y="267" width="20" height="160" as="geometry"/>
                </mxCell>
                <mxCell id="eXu3_KGUznA1Icz2X5bv-52" value="&lt;font color=&quot;#ffffff&quot;&gt;BANCO_1&lt;/font&gt;" style="rounded=1;whiteSpace=wrap;html=1;fillColor=none;fontColor=#000000;strokeColor=#B09500;strokeWidth=2;fontFamily=Verdana;" parent="1" vertex="1">
                    <mxGeometry x="99.5" y="298" width="80" height="20" as="geometry"/>
                </mxCell>
                <mxCell id="eXu3_KGUznA1Icz2X5bv-53" value="&lt;font style=&quot;font-size: 11px;&quot; color=&quot;#ffffff&quot;&gt;APLICATION&lt;/font&gt;" style="rounded=1;whiteSpace=wrap;html=1;fillColor=none;fontColor=#000000;strokeColor=#B09500;strokeWidth=2;fontFamily=Verdana;" parent="1" vertex="1">
                    <mxGeometry x="69.5" y="328" width="72" height="20" as="geometry"/>
                </mxCell>
                <mxCell id="eXu3_KGUznA1Icz2X5bv-54" value="&lt;font style=&quot;font-size: 11px;&quot; color=&quot;#ffffff&quot;&gt;APLICATION_1&lt;/font&gt;" style="rounded=1;whiteSpace=wrap;html=1;fillColor=none;fontColor=#000000;strokeColor=#B09500;strokeWidth=2;fontFamily=Verdana;" parent="1" vertex="1">
                    <mxGeometry x="99.5" y="352" width="80" height="20" as="geometry"/>
                </mxCell>
                <mxCell id="eXu3_KGUznA1Icz2X5bv-55" value="&lt;font color=&quot;#ffffff&quot;&gt;AUDIT&lt;/font&gt;" style="rounded=1;whiteSpace=wrap;html=1;fillColor=none;fontColor=#000000;strokeColor=#B09500;strokeWidth=2;fontFamily=Verdana;" parent="1" vertex="1">
                    <mxGeometry x="69.5" y="383" width="72" height="20" as="geometry"/>
                </mxCell>
                <mxCell id="eXu3_KGUznA1Icz2X5bv-56" value="&lt;font color=&quot;#ffffff&quot;&gt;AUDIT_1&lt;/font&gt;" style="rounded=1;whiteSpace=wrap;html=1;fillColor=none;fontColor=#000000;strokeColor=#B09500;strokeWidth=2;fontFamily=Verdana;" parent="1" vertex="1">
                    <mxGeometry x="99.5" y="407" width="80" height="20" as="geometry"/>
                </mxCell>
                <mxCell id="eXu3_KGUznA1Icz2X5bv-57" value="&lt;font color=&quot;#ffffff&quot;&gt;BANCO&lt;/font&gt;" style="rounded=1;whiteSpace=wrap;html=1;fillColor=none;fontColor=#000000;strokeColor=#B09500;strokeWidth=2;fontFamily=Verdana;" parent="1" vertex="1">
                    <mxGeometry x="359.75" y="274" width="72" height="20" as="geometry"/>
                </mxCell>
                <mxCell id="eXu3_KGUznA1Icz2X5bv-58" value="&lt;b id=&quot;docs-internal-guid-3bc5b63c-7fff-c045-34d9-1487bc46b129&quot; style=&quot;font-weight: normal; font-size: 14px;&quot;&gt;&lt;p style=&quot;line-height: 1.2; margin-top: 0pt; margin-bottom: 0pt; font-size: 14px;&quot; dir=&quot;ltr&quot;&gt;&lt;span style=&quot;font-size: 14px; font-family: Montserrat, sans-serif; color: rgb(255, 153, 0); background-color: transparent; font-weight: 400; font-style: normal; font-variant: normal; text-decoration: none; vertical-align: baseline;&quot;&gt;Compartment (Root)&lt;/span&gt;&lt;/p&gt;&lt;/b&gt;" style="text;html=1;strokeColor=none;fillColor=none;align=center;verticalAlign=middle;whiteSpace=wrap;rounded=0;strokeWidth=2;fontSize=14;" parent="1" vertex="1">
                    <mxGeometry x="229.75" y="342" width="124.5" height="30" as="geometry"/>
                </mxCell>
                <mxCell id="eXu3_KGUznA1Icz2X5bv-59" value="" style="shape=curlyBracket;whiteSpace=wrap;html=1;rounded=1;labelPosition=left;verticalLabelPosition=middle;align=right;verticalAlign=middle;strokeWidth=2;fillColor=none;" parent="1" vertex="1">
                    <mxGeometry x="339.75" y="267" width="20" height="160" as="geometry"/>
                </mxCell>
                <mxCell id="eXu3_KGUznA1Icz2X5bv-60" value="&lt;font color=&quot;#ffffff&quot;&gt;BANCO_1&lt;/font&gt;" style="rounded=1;whiteSpace=wrap;html=1;fillColor=none;fontColor=#000000;strokeColor=#B09500;strokeWidth=2;fontFamily=Verdana;" parent="1" vertex="1">
                    <mxGeometry x="389.75" y="298" width="80" height="20" as="geometry"/>
                </mxCell>
                <mxCell id="eXu3_KGUznA1Icz2X5bv-61" value="&lt;font style=&quot;font-size: 11px;&quot; color=&quot;#ffffff&quot;&gt;APLICATION&lt;/font&gt;" style="rounded=1;whiteSpace=wrap;html=1;fillColor=none;fontColor=#000000;strokeColor=#B09500;strokeWidth=2;fontFamily=Verdana;" parent="1" vertex="1">
                    <mxGeometry x="359.75" y="328" width="72" height="20" as="geometry"/>
                </mxCell>
                <mxCell id="eXu3_KGUznA1Icz2X5bv-62" value="&lt;font style=&quot;font-size: 11px;&quot; color=&quot;#ffffff&quot;&gt;APLICATION_1&lt;/font&gt;" style="rounded=1;whiteSpace=wrap;html=1;fillColor=none;fontColor=#000000;strokeColor=#B09500;strokeWidth=2;fontFamily=Verdana;" parent="1" vertex="1">
                    <mxGeometry x="389.75" y="352" width="80" height="20" as="geometry"/>
                </mxCell>
                <mxCell id="eXu3_KGUznA1Icz2X5bv-63" value="&lt;font color=&quot;#ffffff&quot;&gt;AUDIT&lt;/font&gt;" style="rounded=1;whiteSpace=wrap;html=1;fillColor=none;fontColor=#000000;strokeColor=#B09500;strokeWidth=2;fontFamily=Verdana;" parent="1" vertex="1">
                    <mxGeometry x="359.75" y="383" width="72" height="20" as="geometry"/>
                </mxCell>
                <mxCell id="eXu3_KGUznA1Icz2X5bv-64" value="&lt;font color=&quot;#ffffff&quot;&gt;AUDIT_1&lt;/font&gt;" style="rounded=1;whiteSpace=wrap;html=1;fillColor=none;fontColor=#000000;strokeColor=#B09500;strokeWidth=2;fontFamily=Verdana;" parent="1" vertex="1">
                    <mxGeometry x="389.75" y="407" width="80" height="20" as="geometry"/>
                </mxCell>
            </root>
        </mxGraphModel>
    </diagram>
    <diagram id="fphv38I8F_ziP7QXcadi" name="aws_provider">
        <mxGraphModel dx="2204" dy="694" grid="1" gridSize="10" guides="1" tooltips="1" connect="1" arrows="1" fold="1" page="1" pageScale="1" pageWidth="827" pageHeight="1169" math="0" shadow="0">
            <root>
                <mxCell id="0"/>
                <mxCell id="1" parent="0"/>
                <mxCell id="q5F1iEXAwGa8buiJ8Hme-21" value="" style="shape=ext;double=1;rounded=1;whiteSpace=wrap;html=1;labelBorderColor=#CC6600;strokeColor=#d3913c;fontFamily=Verdana;fontSize=14;fontColor=#da7a0b;fillColor=none;" parent="1" vertex="1">
                    <mxGeometry x="-440" y="397.75" width="320" height="202.25" as="geometry"/>
                </mxCell>
                <mxCell id="d3McHu_6VCE5VbK5CXqg-3" value="&lt;hr&gt;" style="rounded=0;whiteSpace=wrap;html=1;fillColor=none;fontColor=#000000;strokeColor=#CC6600;strokeWidth=6;" parent="1" vertex="1">
                    <mxGeometry x="-800" y="280" width="240" height="600" as="geometry"/>
                </mxCell>
                <mxCell id="d3McHu_6VCE5VbK5CXqg-5" value="&lt;hr&gt;" style="rounded=0;whiteSpace=wrap;html=1;fillColor=none;fontColor=#000000;strokeColor=#CC6600;strokeWidth=6;" parent="1" vertex="1">
                    <mxGeometry x="-480" y="320" width="400" height="440" as="geometry"/>
                </mxCell>
                <mxCell id="d3McHu_6VCE5VbK5CXqg-13" style="edgeStyle=none;html=1;fontFamily=Verdana;fontSize=13;fontColor=#da7a0b;exitX=0;exitY=0.5;exitDx=0;exitDy=0;" parent="1" source="d3McHu_6VCE5VbK5CXqg-6" edge="1">
                    <mxGeometry relative="1" as="geometry">
                        <mxPoint x="-720" y="270" as="targetPoint"/>
                        <Array as="points">
                            <mxPoint x="-720" y="170"/>
                        </Array>
                    </mxGeometry>
                </mxCell>
                <mxCell id="d3McHu_6VCE5VbK5CXqg-6" value="&lt;meta charset=&quot;utf-8&quot;&gt;&lt;b id=&quot;docs-internal-guid-2907e48a-7fff-9a34-469a-3a3c9f60f298&quot; style=&quot;font-weight:normal;&quot;&gt;&lt;img src=&quot;https://lh7-us.googleusercontent.com/pILAxP_Q25JATWh8FZdUC0NEAK7YiObfks5TOgXcwuJidRdwa_uNm9ER_8XBDOeT5w5grtwEJO8OdZDWz4YgChPJCJxEZGJ2wn-WS-2y51d9Q9acsHFTm_rYyxDPut_LkFdv8mA7B3Xly_O3NO0FYp3isA=s2048&quot; height=&quot;57px;&quot; width=&quot;198px;&quot;&gt;&lt;/b&gt;" style="text;whiteSpace=wrap;html=1;fontSize=11;fontFamily=Verdana;fontColor=#da7a0b;" parent="1" vertex="1">
                    <mxGeometry x="-679.5" y="140" width="189.5" height="60" as="geometry"/>
                </mxCell>
                <mxCell id="d3McHu_6VCE5VbK5CXqg-12" style="edgeStyle=none;html=1;entryX=0.304;entryY=-0.012;entryDx=0;entryDy=0;entryPerimeter=0;fontFamily=Verdana;fontSize=13;fontColor=#da7a0b;" parent="1" source="d3McHu_6VCE5VbK5CXqg-7" target="d3McHu_6VCE5VbK5CXqg-6" edge="1">
                    <mxGeometry relative="1" as="geometry"/>
                </mxCell>
                <mxCell id="d3McHu_6VCE5VbK5CXqg-7" value="" style="shape=ext;double=1;rounded=1;whiteSpace=wrap;html=1;labelBorderColor=#CC6600;strokeColor=#C4C1BD;fontFamily=Verdana;fontSize=11;fontColor=#da7a0b;" parent="1" vertex="1">
                    <mxGeometry x="-760" y="20" width="280" height="60" as="geometry"/>
                </mxCell>
                <mxCell id="d3McHu_6VCE5VbK5CXqg-8" value="&lt;meta charset=&quot;utf-8&quot;&gt;&lt;b id=&quot;docs-internal-guid-b1157c10-7fff-f48c-381c-91cf66b51c12&quot; style=&quot;font-weight:normal;&quot;&gt;&lt;img src=&quot;https://lh7-us.googleusercontent.com/XBUWJAQ4RxeMx2p4LE6fTXS12f-qG9EBVA1sFKwlMqX6tsMHcnFoDtItSj9BPpDtPOkl7EpylkazBpulrZOdvKVd2sQRGrZZ1k64L9DXKjPnaUaNF-5UA71He_x-I-WOPFn6Ctz_9JegVhs-X0TxgrKJjw=s2048&quot; height=&quot;41px;&quot; width=&quot;69px;&quot;&gt;&lt;/b&gt;" style="text;whiteSpace=wrap;html=1;fontSize=11;fontFamily=Verdana;fontColor=#da7a0b;" parent="1" vertex="1">
                    <mxGeometry x="-550" y="24" width="100" height="70" as="geometry"/>
                </mxCell>
                <mxCell id="d3McHu_6VCE5VbK5CXqg-9" value="&lt;meta charset=&quot;utf-8&quot; style=&quot;font-size: 13px;&quot;&gt;&lt;b id=&quot;docs-internal-guid-e88ece0c-7fff-4347-3951-f6b9d227c91a&quot; style=&quot;font-weight: normal; font-size: 13px;&quot;&gt;&lt;p style=&quot;line-height: 1.38; margin-top: 0pt; margin-bottom: 0pt; font-size: 13px;&quot; dir=&quot;ltr&quot;&gt;&lt;span style=&quot;font-size: 13px; font-family: Montserrat, sans-serif; color: rgb(255, 255, 255); background-color: transparent; font-weight: 400; font-style: normal; font-variant: normal; text-decoration: none; vertical-align: baseline;&quot;&gt;Corporate&amp;nbsp;&amp;nbsp;&lt;/span&gt;&lt;/p&gt;&lt;p style=&quot;line-height: 1.38; margin-top: 0pt; margin-bottom: 0pt; font-size: 13px;&quot; dir=&quot;ltr&quot;&gt;&lt;span style=&quot;font-size: 13px; font-family: Montserrat, sans-serif; color: rgb(255, 255, 255); background-color: transparent; font-weight: 400; font-style: normal; font-variant: normal; text-decoration: none; vertical-align: baseline;&quot;&gt;Data Center&lt;/span&gt;&lt;/p&gt;&lt;/b&gt;&lt;br class=&quot;Apple-interchange-newline&quot; style=&quot;font-size: 13px;&quot;&gt;" style="text;whiteSpace=wrap;html=1;fontSize=13;fontFamily=Verdana;fontColor=#da7a0b;" parent="1" vertex="1">
                    <mxGeometry x="-714.75" y="30" width="90" height="70" as="geometry"/>
                </mxCell>
                <mxCell id="d3McHu_6VCE5VbK5CXqg-10" value="&lt;meta charset=&quot;utf-8&quot; style=&quot;font-size: 13px;&quot;&gt;&lt;b id=&quot;docs-internal-guid-e88ece0c-7fff-4347-3951-f6b9d227c91a&quot; style=&quot;font-weight: normal; font-size: 13px;&quot;&gt;&lt;p style=&quot;line-height: 1.38; margin-top: 0pt; margin-bottom: 0pt; font-size: 13px;&quot; dir=&quot;ltr&quot;&gt;&lt;span style=&quot;font-size: 13px; font-family: Montserrat, sans-serif; color: rgb(255, 255, 255); background-color: transparent; font-weight: 400; font-style: normal; font-variant: normal; text-decoration: none; vertical-align: baseline;&quot;&gt;Corporate&amp;nbsp;&amp;nbsp;&lt;/span&gt;&lt;/p&gt;&lt;p style=&quot;line-height: 1.38; margin-top: 0pt; margin-bottom: 0pt; font-size: 13px;&quot; dir=&quot;ltr&quot;&gt;&lt;span style=&quot;font-size: 13px; font-family: Montserrat, sans-serif; color: rgb(255, 255, 255); background-color: transparent; font-weight: 400; font-style: normal; font-variant: normal; text-decoration: none; vertical-align: baseline;&quot;&gt;Data Center&lt;/span&gt;&lt;/p&gt;&lt;/b&gt;&lt;br class=&quot;Apple-interchange-newline&quot; style=&quot;font-size: 13px;&quot;&gt;" style="text;whiteSpace=wrap;html=1;fontSize=13;fontFamily=Verdana;fontColor=#da7a0b;" parent="1" vertex="1">
                    <mxGeometry x="-629.5" y="30" width="90" height="70" as="geometry"/>
                </mxCell>
                <mxCell id="d3McHu_6VCE5VbK5CXqg-11" value="&lt;meta charset=&quot;utf-8&quot;&gt;&lt;b id=&quot;docs-internal-guid-cf12201a-7fff-9905-0576-1f05a2af6ea7&quot; style=&quot;font-weight:normal;&quot;&gt;&lt;img src=&quot;https://lh7-us.googleusercontent.com/CO76nrKHnoK7_rwvdg65pQLFi3hU_MbncJSdASKYTuBERG4x-mvbt2Jk7sc94RO8_0JUU4FIPf7B27v-r8krJFpVTPbw-RfdMHdrcpCt8A5bSY0Ig-iR8RtdnzTmtglOovw2U5weonCFI8tS-kNZZZBgFA=s2048&quot; height=&quot;25px;&quot; width=&quot;25px;&quot;&gt;&lt;/b&gt;" style="text;whiteSpace=wrap;html=1;fontSize=11;fontFamily=Verdana;fontColor=#da7a0b;" parent="1" vertex="1">
                    <mxGeometry x="-750" y="20" width="60" height="50" as="geometry"/>
                </mxCell>
                <mxCell id="d3McHu_6VCE5VbK5CXqg-16" value="&lt;meta charset=&quot;utf-8&quot; style=&quot;font-size: 14px;&quot;&gt;&lt;span style=&quot;font-size: 14px;&quot; id=&quot;docs-internal-guid-03665307-7fff-9bef-fcaa-9915f34f7a27&quot;&gt;&lt;p style=&quot;line-height: 1.2; margin-top: 0pt; margin-bottom: 0pt; font-size: 14px;&quot; dir=&quot;ltr&quot;&gt;&lt;span style=&quot;font-size: 14px; font-family: Montserrat, sans-serif; color: rgb(255, 102, 51); background-color: transparent; font-style: normal; font-variant: normal; text-decoration: none; vertical-align: baseline;&quot;&gt;Master Account Admin&lt;/span&gt;&lt;/p&gt;&lt;p style=&quot;line-height: 1.2; margin-top: 0pt; margin-bottom: 0pt; font-size: 14px;&quot; dir=&quot;ltr&quot;&gt;&lt;span style=&quot;font-size: 14px; font-family: Montserrat, sans-serif; color: rgb(255, 255, 0); background-color: transparent; font-style: normal; font-variant: normal; text-decoration: none; vertical-align: baseline;&quot;&gt;Root_Adm@zup.com.br&lt;/span&gt;&lt;/p&gt;&lt;/span&gt;&lt;br class=&quot;Apple-interchange-newline&quot; style=&quot;font-size: 14px;&quot;&gt;" style="text;whiteSpace=wrap;html=1;fontSize=14;fontFamily=Verdana;fontColor=#da7a0b;fontStyle=1" parent="1" vertex="1">
                    <mxGeometry x="-750" y="280" width="199.5" height="70" as="geometry"/>
                </mxCell>
                <mxCell id="d3McHu_6VCE5VbK5CXqg-18" value="" style="shape=ext;double=1;rounded=1;whiteSpace=wrap;html=1;labelBorderColor=#CC6600;strokeColor=#d3913c;fontFamily=Verdana;fontSize=14;fontColor=#da7a0b;fillColor=none;" parent="1" vertex="1">
                    <mxGeometry x="-760" y="361" width="160" height="119" as="geometry"/>
                </mxCell>
                <mxCell id="d3McHu_6VCE5VbK5CXqg-19" value="" style="shape=ext;double=1;rounded=1;whiteSpace=wrap;html=1;labelBorderColor=#CC6600;strokeColor=#d3913c;fontFamily=Verdana;fontSize=14;fontColor=#da7a0b;fillColor=none;" parent="1" vertex="1">
                    <mxGeometry x="-760" y="520" width="160" height="120" as="geometry"/>
                </mxCell>
                <mxCell id="d3McHu_6VCE5VbK5CXqg-20" value="" style="shape=ext;double=1;rounded=1;whiteSpace=wrap;html=1;labelBorderColor=#CC6600;strokeColor=#994C00;fontFamily=Verdana;fontSize=14;fontColor=#da7a0b;fillColor=none;" parent="1" vertex="1">
                    <mxGeometry x="-760" y="680" width="160" height="160" as="geometry"/>
                </mxCell>
                <mxCell id="d3McHu_6VCE5VbK5CXqg-23" value="&lt;meta charset=&quot;utf-8&quot; style=&quot;font-size: 14px;&quot;&gt;&lt;span style=&quot;font-size: 14px;&quot; id=&quot;docs-internal-guid-15ad3dd0-7fff-9596-e46c-5fff35ea77f1&quot;&gt;&lt;p style=&quot;line-height: 1.2; text-align: center; margin-top: 0pt; margin-bottom: 0pt; font-size: 14px;&quot; dir=&quot;ltr&quot;&gt;&lt;span style=&quot;font-size: 14px; font-family: Montserrat, sans-serif; color: rgb(255, 153, 0); background-color: transparent; font-style: normal; font-variant: normal; text-decoration: none; vertical-align: baseline;&quot;&gt;Control Plane Dev&lt;/span&gt;&lt;/p&gt;&lt;/span&gt;&lt;br class=&quot;Apple-interchange-newline&quot; style=&quot;font-size: 14px;&quot;&gt;" style="text;whiteSpace=wrap;html=1;fontSize=14;fontFamily=Verdana;fontColor=#da7a0b;fontStyle=1" parent="1" vertex="1">
                    <mxGeometry x="-742.37" y="358" width="124.75" height="30" as="geometry"/>
                </mxCell>
                <mxCell id="d3McHu_6VCE5VbK5CXqg-32" value="&lt;meta charset=&quot;utf-8&quot; style=&quot;font-size: 14px;&quot;&gt;&lt;span style=&quot;font-size: 14px;&quot; id=&quot;docs-internal-guid-eadf60ee-7fff-bd1a-9ce6-3df4cb7d2cfc&quot;&gt;&lt;p style=&quot;line-height: 1.2; text-align: center; margin-top: 0pt; margin-bottom: 0pt; font-size: 14px;&quot; dir=&quot;ltr&quot;&gt;&lt;span style=&quot;font-size: 14px; font-family: Montserrat, sans-serif; color: rgb(255, 153, 0); background-color: transparent; font-style: normal; font-variant: normal; text-decoration: none; vertical-align: baseline;&quot;&gt;Control Plane Prod&lt;/span&gt;&lt;/p&gt;&lt;/span&gt;&lt;br class=&quot;Apple-interchange-newline&quot; style=&quot;font-size: 14px;&quot;&gt;" style="text;whiteSpace=wrap;html=1;fontSize=14;fontFamily=Verdana;fontColor=#da7a0b;fontStyle=1" parent="1" vertex="1">
                    <mxGeometry x="-745.37" y="520" width="136" height="30" as="geometry"/>
                </mxCell>
                <mxCell id="d3McHu_6VCE5VbK5CXqg-38" value="&lt;meta charset=&quot;utf-8&quot; style=&quot;font-size: 14px;&quot;&gt;&lt;span style=&quot;font-size: 14px;&quot; id=&quot;docs-internal-guid-2248c830-7fff-7b98-616d-ff1d6bcf1c55&quot;&gt;&lt;p style=&quot;line-height: 1.2; text-align: center; margin-top: 0pt; margin-bottom: 0pt; font-size: 14px;&quot; dir=&quot;ltr&quot;&gt;&lt;span style=&quot;font-size: 14px; font-family: Montserrat, sans-serif; color: rgb(255, 255, 255); background-color: transparent; font-style: normal; font-variant: normal; text-decoration: none; vertical-align: baseline;&quot;&gt;Core Accounts&lt;/span&gt;&lt;/p&gt;&lt;/span&gt;&lt;br class=&quot;Apple-interchange-newline&quot; style=&quot;font-size: 14px;&quot;&gt;" style="text;whiteSpace=wrap;html=1;fontSize=14;fontFamily=Verdana;fontColor=#da7a0b;fontStyle=1" parent="1" vertex="1">
                    <mxGeometry x="-747.12" y="680" width="139.5" height="30" as="geometry"/>
                </mxCell>
                <mxCell id="d3McHu_6VCE5VbK5CXqg-39" value="" style="sketch=0;points=[[0,0,0],[0.25,0,0],[0.5,0,0],[0.75,0,0],[1,0,0],[0,1,0],[0.25,1,0],[0.5,1,0],[0.75,1,0],[1,1,0],[0,0.25,0],[0,0.5,0],[0,0.75,0],[1,0.25,0],[1,0.5,0],[1,0.75,0]];outlineConnect=0;fontColor=#232F3E;gradientColor=#F78E04;gradientDirection=north;fillColor=#D05C17;strokeColor=#ffffff;dashed=0;verticalLabelPosition=bottom;verticalAlign=top;align=center;html=1;fontSize=12;fontStyle=0;aspect=fixed;shape=mxgraph.aws4.resourceIcon;resIcon=mxgraph.aws4.lambda;labelBorderColor=#CC6600;fontFamily=Verdana;" parent="1" vertex="1">
                    <mxGeometry x="-675.5" y="390" width="30" height="30" as="geometry"/>
                </mxCell>
                <mxCell id="d3McHu_6VCE5VbK5CXqg-40" value="" style="sketch=0;points=[[0,0,0],[0.25,0,0],[0.5,0,0],[0.75,0,0],[1,0,0],[0,1,0],[0.25,1,0],[0.5,1,0],[0.75,1,0],[1,1,0],[0,0.25,0],[0,0.5,0],[0,0.75,0],[1,0.25,0],[1,0.5,0],[1,0.75,0]];outlineConnect=0;fontColor=#232F3E;gradientColor=#FF4F8B;gradientDirection=north;fillColor=#BC1356;strokeColor=#ffffff;dashed=0;verticalLabelPosition=bottom;verticalAlign=top;align=center;html=1;fontSize=12;fontStyle=0;aspect=fixed;shape=mxgraph.aws4.resourceIcon;resIcon=mxgraph.aws4.api_gateway;labelBorderColor=#CC6600;fontFamily=Verdana;" parent="1" vertex="1">
                    <mxGeometry x="-749.5" y="411.25" width="28.75" height="28.75" as="geometry"/>
                </mxCell>
                <mxCell id="d3McHu_6VCE5VbK5CXqg-44" value="" style="sketch=0;points=[[0,0,0],[0.25,0,0],[0.5,0,0],[0.75,0,0],[1,0,0],[0,1,0],[0.25,1,0],[0.5,1,0],[0.75,1,0],[1,1,0],[0,0.25,0],[0,0.5,0],[0,0.75,0],[1,0.25,0],[1,0.5,0],[1,0.75,0]];outlineConnect=0;fontColor=#232F3E;gradientColor=#4D72F3;gradientDirection=north;fillColor=#3334B9;strokeColor=#ffffff;dashed=0;verticalLabelPosition=bottom;verticalAlign=top;align=center;html=1;fontSize=12;fontStyle=0;aspect=fixed;shape=mxgraph.aws4.resourceIcon;resIcon=mxgraph.aws4.rds;labelBorderColor=#CC6600;fontFamily=Verdana;" parent="1" vertex="1">
                    <mxGeometry x="-675.5" y="427.75" width="30" height="30" as="geometry"/>
                </mxCell>
                <mxCell id="d3McHu_6VCE5VbK5CXqg-47" value="&lt;meta charset=&quot;utf-8&quot; style=&quot;font-size: 14px;&quot;&gt;&lt;b id=&quot;docs-internal-guid-69158c5f-7fff-e766-64af-5187dd032948&quot; style=&quot;font-weight: normal; font-size: 14px;&quot;&gt;&lt;p style=&quot;line-height: 1.2; margin-top: 0pt; margin-bottom: 0pt; font-size: 14px;&quot; dir=&quot;ltr&quot;&gt;&lt;span style=&quot;font-size: 14px; font-family: Montserrat, sans-serif; color: rgb(255, 102, 51); background-color: transparent; font-weight: 400; font-style: normal; font-variant: normal; text-decoration: none; vertical-align: baseline;&quot;&gt;AWS Organization&lt;/span&gt;&lt;/p&gt;&lt;/b&gt;&lt;br class=&quot;Apple-interchange-newline&quot; style=&quot;font-size: 14px;&quot;&gt;" style="text;whiteSpace=wrap;html=1;fontSize=14;fontFamily=Verdana;fontColor=#da7a0b;" parent="1" vertex="1">
                    <mxGeometry x="-368.24" y="330" width="190" height="25" as="geometry"/>
                </mxCell>
                <mxCell id="d3McHu_6VCE5VbK5CXqg-48" value="" style="outlineConnect=0;dashed=0;verticalLabelPosition=bottom;verticalAlign=top;align=center;html=1;shape=mxgraph.aws3.cloud_2;fillColor=#F58534;gradientColor=none;labelBorderColor=#CC6600;strokeColor=#994C00;fontFamily=Verdana;fontSize=14;fontColor=#da7a0b;" parent="1" vertex="1">
                    <mxGeometry x="-795" y="285" width="40" height="40" as="geometry"/>
                </mxCell>
                <mxCell id="d3McHu_6VCE5VbK5CXqg-49" value="" style="outlineConnect=0;dashed=0;verticalLabelPosition=bottom;verticalAlign=top;align=center;html=1;shape=mxgraph.aws3.cloud_2;fillColor=#F58534;gradientColor=none;labelBorderColor=#CC6600;strokeColor=#994C00;fontFamily=Verdana;fontSize=14;fontColor=#da7a0b;" parent="1" vertex="1">
                    <mxGeometry x="-476" y="325" width="40" height="40" as="geometry"/>
                </mxCell>
                <mxCell id="d3McHu_6VCE5VbK5CXqg-50" value="" style="sketch=0;points=[[0,0,0],[0.25,0,0],[0.5,0,0],[0.75,0,0],[1,0,0],[0,1,0],[0.25,1,0],[0.5,1,0],[0.75,1,0],[1,1,0],[0,0.25,0],[0,0.5,0],[0,0.75,0],[1,0.25,0],[1,0.5,0],[1,0.75,0]];points=[[0,0,0],[0.25,0,0],[0.5,0,0],[0.75,0,0],[1,0,0],[0,1,0],[0.25,1,0],[0.5,1,0],[0.75,1,0],[1,1,0],[0,0.25,0],[0,0.5,0],[0,0.75,0],[1,0.25,0],[1,0.5,0],[1,0.75,0]];outlineConnect=0;fontColor=#232F3E;gradientColor=#F34482;gradientDirection=north;fillColor=#BC1356;strokeColor=#ffffff;dashed=0;verticalLabelPosition=bottom;verticalAlign=top;align=center;html=1;fontSize=12;fontStyle=0;aspect=fixed;shape=mxgraph.aws4.resourceIcon;resIcon=mxgraph.aws4.control_tower;labelBorderColor=#CC6600;fontFamily=Verdana;" parent="1" vertex="1">
                    <mxGeometry x="-364.24" y="440" width="33" height="33" as="geometry"/>
                </mxCell>
                <mxCell id="0zTFWlwXgpWSjvQMvuse-1" style="edgeStyle=none;html=1;entryX=-0.007;entryY=0.52;entryDx=0;entryDy=0;fontFamily=Verdana;fontSize=14;fontColor=#FFFFFF;entryPerimeter=0;" parent="1" source="CiXctld1piZLk15MSiks-1" target="d3McHu_6VCE5VbK5CXqg-5" edge="1">
                    <mxGeometry relative="1" as="geometry"/>
                </mxCell>
                <mxCell id="CiXctld1piZLk15MSiks-1" value="" style="shape=curlyBracket;whiteSpace=wrap;html=1;rounded=1;flipH=1;labelPosition=right;verticalLabelPosition=middle;align=left;verticalAlign=middle;labelBorderColor=#CC6600;strokeColor=#994C00;fontFamily=Verdana;fontSize=14;fontColor=#990000;fillColor=#1e1a15;" parent="1" vertex="1">
                    <mxGeometry x="-550" y="280" width="20" height="540" as="geometry"/>
                </mxCell>
                <mxCell id="q5F1iEXAwGa8buiJ8Hme-1" value="&lt;font color=&quot;#ffffff&quot;&gt;Hub-in-out&lt;/font&gt;" style="rounded=1;whiteSpace=wrap;html=1;strokeWidth=2;fillWeight=4;hachureGap=8;hachureAngle=45;fillColor=#990000;sketch=1;labelBorderColor=#CC6600;strokeColor=#994C00;fontFamily=Verdana;fontSize=14;fontColor=#990000;" parent="1" vertex="1">
                    <mxGeometry x="-677.87" y="776" width="67.25" height="20" as="geometry"/>
                </mxCell>
                <mxCell id="q5F1iEXAwGa8buiJ8Hme-2" value="&lt;font color=&quot;#ffffff&quot;&gt;Log Archive&lt;/font&gt;" style="rounded=1;whiteSpace=wrap;html=1;strokeWidth=2;fillWeight=4;hachureGap=8;hachureAngle=45;fillColor=#990000;sketch=1;labelBorderColor=#CC6600;strokeColor=#994C00;fontFamily=Verdana;fontSize=14;fontColor=#990000;" parent="1" vertex="1">
                    <mxGeometry x="-750" y="760" width="60" height="30" as="geometry"/>
                </mxCell>
                <mxCell id="q5F1iEXAwGa8buiJ8Hme-3" value="&lt;font color=&quot;#ffffff&quot;&gt;Foudation&lt;/font&gt;" style="rounded=1;whiteSpace=wrap;html=1;strokeWidth=2;fillWeight=4;hachureGap=8;hachureAngle=45;fillColor=#990000;sketch=1;labelBorderColor=#CC6600;strokeColor=#994C00;fontFamily=Verdana;fontSize=14;fontColor=#990000;" parent="1" vertex="1">
                    <mxGeometry x="-680.62" y="750" width="69.5" height="20" as="geometry"/>
                </mxCell>
                <mxCell id="q5F1iEXAwGa8buiJ8Hme-4" value="&lt;font color=&quot;#ffffff&quot;&gt;Security&lt;/font&gt;" style="rounded=1;whiteSpace=wrap;html=1;strokeWidth=2;fillWeight=4;hachureGap=8;hachureAngle=45;fillColor=#990000;sketch=1;labelBorderColor=#CC6600;strokeColor=#994C00;fontFamily=Verdana;fontSize=14;fontColor=#990000;" parent="1" vertex="1">
                    <mxGeometry x="-749.5" y="800" width="70" height="20" as="geometry"/>
                </mxCell>
                <mxCell id="q5F1iEXAwGa8buiJ8Hme-5" value="&lt;font color=&quot;#ffffff&quot;&gt;Audit&lt;/font&gt;" style="rounded=1;whiteSpace=wrap;html=1;strokeWidth=2;fillWeight=4;hachureGap=8;hachureAngle=45;fillColor=#990000;sketch=1;labelBorderColor=#CC6600;strokeColor=#994C00;fontFamily=Verdana;fontSize=14;fontColor=#990000;" parent="1" vertex="1">
                    <mxGeometry x="-664" y="800" width="48.5" height="20" as="geometry"/>
                </mxCell>
                <mxCell id="q5F1iEXAwGa8buiJ8Hme-7" value="&lt;font color=&quot;#ffffff&quot;&gt;Custodian&lt;/font&gt;" style="rounded=1;whiteSpace=wrap;html=1;strokeWidth=2;fillWeight=4;hachureGap=8;hachureAngle=45;fillColor=#990000;sketch=1;labelBorderColor=#CC6600;strokeColor=#994C00;fontFamily=Verdana;fontSize=14;fontColor=#990000;" parent="1" vertex="1">
                    <mxGeometry x="-681.24" y="720" width="70" height="20" as="geometry"/>
                </mxCell>
                <mxCell id="q5F1iEXAwGa8buiJ8Hme-20" value="" style="sketch=0;points=[[0,0,0],[0.25,0,0],[0.5,0,0],[0.75,0,0],[1,0,0],[0,1,0],[0.25,1,0],[0.5,1,0],[0.75,1,0],[1,1,0],[0,0.25,0],[0,0.5,0],[0,0.75,0],[1,0.25,0],[1,0.5,0],[1,0.75,0]];points=[[0,0,0],[0.25,0,0],[0.5,0,0],[0.75,0,0],[1,0,0],[0,1,0],[0.25,1,0],[0.5,1,0],[0.75,1,0],[1,1,0],[0,0.25,0],[0,0.5,0],[0,0.75,0],[1,0.25,0],[1,0.5,0],[1,0.75,0]];outlineConnect=0;fontColor=#232F3E;gradientColor=#F34482;gradientDirection=north;fillColor=#BC1356;strokeColor=#ffffff;dashed=0;verticalLabelPosition=bottom;verticalAlign=top;align=center;html=1;fontSize=12;fontStyle=0;aspect=fixed;shape=mxgraph.aws4.resourceIcon;resIcon=mxgraph.aws4.service_catalog;labelBorderColor=#CC6600;fontFamily=Verdana;" parent="1" vertex="1">
                    <mxGeometry x="-321.24" y="440" width="34.5" height="34.5" as="geometry"/>
                </mxCell>
                <mxCell id="0zTFWlwXgpWSjvQMvuse-2" value="&lt;font color=&quot;#ffffff&quot;&gt;Shared Dev&lt;/font&gt;" style="rounded=1;whiteSpace=wrap;html=1;strokeWidth=2;fillWeight=4;hachureGap=8;hachureAngle=45;fillColor=#990000;sketch=1;labelBorderColor=#CC6600;strokeColor=#994C00;fontFamily=Verdana;fontSize=14;fontColor=#990000;" parent="1" vertex="1">
                    <mxGeometry x="-744.5" y="720" width="44.5" height="30" as="geometry"/>
                </mxCell>
                <mxCell id="0zTFWlwXgpWSjvQMvuse-4" style="edgeStyle=none;html=1;fontFamily=Verdana;fontSize=13;fontColor=#da7a0b;exitX=1;exitY=0.5;exitDx=0;exitDy=0;entryX=0.398;entryY=-0.007;entryDx=0;entryDy=0;entryPerimeter=0;" parent="1" source="d3McHu_6VCE5VbK5CXqg-6" target="d3McHu_6VCE5VbK5CXqg-5" edge="1">
                    <mxGeometry relative="1" as="geometry">
                        <mxPoint x="-669.5" y="180" as="sourcePoint"/>
                        <mxPoint x="-710" y="280" as="targetPoint"/>
                        <Array as="points">
                            <mxPoint x="-320" y="170"/>
                        </Array>
                    </mxGeometry>
                </mxCell>
                <mxCell id="0zTFWlwXgpWSjvQMvuse-5" value="&lt;span style=&quot;font-size: 14px;&quot; id=&quot;docs-internal-guid-15ad3dd0-7fff-9596-e46c-5fff35ea77f1&quot;&gt;&lt;p style=&quot;line-height: 1.2; text-align: center; margin-top: 0pt; margin-bottom: 0pt; font-size: 14px;&quot; dir=&quot;ltr&quot;&gt;&lt;/p&gt;&lt;/span&gt;&lt;font face=&quot;Montserrat, sans-serif&quot; color=&quot;#ff9900&quot;&gt;Data Plane&lt;br&gt;&lt;/font&gt;" style="text;whiteSpace=wrap;html=1;fontSize=14;fontFamily=Verdana;fontColor=#da7a0b;fontStyle=1" parent="1" vertex="1">
                    <mxGeometry x="-331.24" y="405.5" width="78.37" height="30" as="geometry"/>
                </mxCell>
                <mxCell id="0zTFWlwXgpWSjvQMvuse-8" value="" style="sketch=0;points=[[0,0,0],[0.25,0,0],[0.5,0,0],[0.75,0,0],[1,0,0],[0,1,0],[0.25,1,0],[0.5,1,0],[0.75,1,0],[1,1,0],[0,0.25,0],[0,0.5,0],[0,0.75,0],[1,0.25,0],[1,0.5,0],[1,0.75,0]];points=[[0,0,0],[0.25,0,0],[0.5,0,0],[0.75,0,0],[1,0,0],[0,1,0],[0.25,1,0],[0.5,1,0],[0.75,1,0],[1,1,0],[0,0.25,0],[0,0.5,0],[0,0.75,0],[1,0.25,0],[1,0.5,0],[1,0.75,0]];outlineConnect=0;fontColor=#232F3E;gradientColor=#F34482;gradientDirection=north;fillColor=#BC1356;strokeColor=#ffffff;dashed=0;verticalLabelPosition=bottom;verticalAlign=top;align=center;html=1;fontSize=12;fontStyle=0;aspect=fixed;shape=mxgraph.aws4.resourceIcon;resIcon=mxgraph.aws4.control_tower;labelBorderColor=#CC6600;fontFamily=Verdana;" parent="1" vertex="1">
                    <mxGeometry x="-639.37" y="390" width="30" height="30" as="geometry"/>
                </mxCell>
                <mxCell id="0zTFWlwXgpWSjvQMvuse-26" value="&lt;font color=&quot;#ffffff&quot;&gt;Hub-in-out&lt;/font&gt;" style="rounded=1;whiteSpace=wrap;html=1;strokeWidth=2;fillWeight=4;hachureGap=8;hachureAngle=45;fillColor=#990000;sketch=1;labelBorderColor=#CC6600;strokeColor=#994C00;fontFamily=Verdana;fontSize=14;fontColor=#990000;" parent="1" vertex="1">
                    <mxGeometry x="-432.5" y="520" width="67.25" height="20" as="geometry"/>
                </mxCell>
                <mxCell id="0zTFWlwXgpWSjvQMvuse-27" value="&lt;font color=&quot;#ffffff&quot;&gt;Log Archive&lt;/font&gt;" style="rounded=1;whiteSpace=wrap;html=1;strokeWidth=2;fillWeight=4;hachureGap=8;hachureAngle=45;fillColor=#990000;sketch=1;labelBorderColor=#CC6600;strokeColor=#994C00;fontFamily=Verdana;fontSize=14;fontColor=#990000;" parent="1" vertex="1">
                    <mxGeometry x="-254" y="550" width="60" height="30" as="geometry"/>
                </mxCell>
                <mxCell id="0zTFWlwXgpWSjvQMvuse-28" value="&lt;font color=&quot;#ffffff&quot;&gt;Foudation&lt;/font&gt;" style="rounded=1;whiteSpace=wrap;html=1;strokeWidth=2;fillWeight=4;hachureGap=8;hachureAngle=45;fillColor=#990000;sketch=1;labelBorderColor=#CC6600;strokeColor=#994C00;fontFamily=Verdana;fontSize=14;fontColor=#990000;" parent="1" vertex="1">
                    <mxGeometry x="-263.5" y="520" width="69.5" height="20" as="geometry"/>
                </mxCell>
                <mxCell id="0zTFWlwXgpWSjvQMvuse-29" value="&lt;font color=&quot;#ffffff&quot;&gt;Security&lt;/font&gt;" style="rounded=1;whiteSpace=wrap;html=1;strokeWidth=2;fillWeight=4;hachureGap=8;hachureAngle=45;fillColor=#990000;sketch=1;labelBorderColor=#CC6600;strokeColor=#994C00;fontFamily=Verdana;fontSize=14;fontColor=#990000;" parent="1" vertex="1">
                    <mxGeometry x="-413" y="550" width="70" height="20" as="geometry"/>
                </mxCell>
                <mxCell id="0zTFWlwXgpWSjvQMvuse-30" value="&lt;font color=&quot;#ffffff&quot;&gt;Audit&lt;/font&gt;" style="rounded=1;whiteSpace=wrap;html=1;strokeWidth=2;fillWeight=4;hachureGap=8;hachureAngle=45;fillColor=#990000;sketch=1;labelBorderColor=#CC6600;strokeColor=#994C00;fontFamily=Verdana;fontSize=14;fontColor=#990000;" parent="1" vertex="1">
                    <mxGeometry x="-180" y="520" width="48.5" height="20" as="geometry"/>
                </mxCell>
                <mxCell id="0zTFWlwXgpWSjvQMvuse-31" value="&lt;font color=&quot;#ffffff&quot;&gt;Custodian&lt;/font&gt;" style="rounded=1;whiteSpace=wrap;html=1;strokeWidth=2;fillWeight=4;hachureGap=8;hachureAngle=45;fillColor=#990000;sketch=1;labelBorderColor=#CC6600;strokeColor=#994C00;fontFamily=Verdana;fontSize=14;fontColor=#990000;" parent="1" vertex="1">
                    <mxGeometry x="-348.99" y="520" width="70" height="20" as="geometry"/>
                </mxCell>
                <mxCell id="0zTFWlwXgpWSjvQMvuse-32" value="&lt;font color=&quot;#ffffff&quot;&gt;Shared Dev&lt;/font&gt;" style="rounded=1;whiteSpace=wrap;html=1;strokeWidth=2;fillWeight=4;hachureGap=8;hachureAngle=45;fillColor=#990000;sketch=1;labelBorderColor=#CC6600;strokeColor=#994C00;fontFamily=Verdana;fontSize=14;fontColor=#990000;" parent="1" vertex="1">
                    <mxGeometry x="-326.24" y="550" width="44.5" height="30" as="geometry"/>
                </mxCell>
                <mxCell id="0zTFWlwXgpWSjvQMvuse-40" value="" style="shape=image;verticalLabelPosition=bottom;labelBackgroundColor=default;verticalAlign=top;aspect=fixed;imageAspect=0;image=https://seeklogo.com/images/A/aws-cloudformation-logo-11F173F931-seeklogo.com.png;" parent="1" vertex="1">
                    <mxGeometry x="-640.49" y="427.75" width="32.25" height="32.25" as="geometry"/>
                </mxCell>
                <mxCell id="0zTFWlwXgpWSjvQMvuse-41" value="" style="shape=image;verticalLabelPosition=bottom;labelBackgroundColor=default;verticalAlign=top;aspect=fixed;imageAspect=0;image=https://res.cloudinary.com/hy4kyit2a/f_auto,fl_lossy,q_70/learn/modules/aws-pricing-models-and-support/work-together-using-aws-organizations/images/bccf0128089ed0d8fcbe515d39500b7d_f-07473-b-8-fda-0-476-a-8-e-26-24-bf-751-aba-33.png;" parent="1" vertex="1">
                    <mxGeometry x="-712.37" y="411.25" width="28.75" height="28.75" as="geometry"/>
                </mxCell>
                <mxCell id="0zTFWlwXgpWSjvQMvuse-43" value="" style="sketch=0;points=[[0,0,0],[0.25,0,0],[0.5,0,0],[0.75,0,0],[1,0,0],[0,1,0],[0.25,1,0],[0.5,1,0],[0.75,1,0],[1,1,0],[0,0.25,0],[0,0.5,0],[0,0.75,0],[1,0.25,0],[1,0.5,0],[1,0.75,0]];outlineConnect=0;fontColor=#232F3E;gradientColor=#F78E04;gradientDirection=north;fillColor=#D05C17;strokeColor=#ffffff;dashed=0;verticalLabelPosition=bottom;verticalAlign=top;align=center;html=1;fontSize=12;fontStyle=0;aspect=fixed;shape=mxgraph.aws4.resourceIcon;resIcon=mxgraph.aws4.lambda;labelBorderColor=#CC6600;fontFamily=Verdana;" parent="1" vertex="1">
                    <mxGeometry x="-678.5" y="558" width="30" height="30" as="geometry"/>
                </mxCell>
                <mxCell id="0zTFWlwXgpWSjvQMvuse-44" value="" style="sketch=0;points=[[0,0,0],[0.25,0,0],[0.5,0,0],[0.75,0,0],[1,0,0],[0,1,0],[0.25,1,0],[0.5,1,0],[0.75,1,0],[1,1,0],[0,0.25,0],[0,0.5,0],[0,0.75,0],[1,0.25,0],[1,0.5,0],[1,0.75,0]];outlineConnect=0;fontColor=#232F3E;gradientColor=#FF4F8B;gradientDirection=north;fillColor=#BC1356;strokeColor=#ffffff;dashed=0;verticalLabelPosition=bottom;verticalAlign=top;align=center;html=1;fontSize=12;fontStyle=0;aspect=fixed;shape=mxgraph.aws4.resourceIcon;resIcon=mxgraph.aws4.api_gateway;labelBorderColor=#CC6600;fontFamily=Verdana;" parent="1" vertex="1">
                    <mxGeometry x="-752.5" y="579.25" width="28.75" height="28.75" as="geometry"/>
                </mxCell>
                <mxCell id="0zTFWlwXgpWSjvQMvuse-45" value="" style="sketch=0;points=[[0,0,0],[0.25,0,0],[0.5,0,0],[0.75,0,0],[1,0,0],[0,1,0],[0.25,1,0],[0.5,1,0],[0.75,1,0],[1,1,0],[0,0.25,0],[0,0.5,0],[0,0.75,0],[1,0.25,0],[1,0.5,0],[1,0.75,0]];outlineConnect=0;fontColor=#232F3E;gradientColor=#4D72F3;gradientDirection=north;fillColor=#3334B9;strokeColor=#ffffff;dashed=0;verticalLabelPosition=bottom;verticalAlign=top;align=center;html=1;fontSize=12;fontStyle=0;aspect=fixed;shape=mxgraph.aws4.resourceIcon;resIcon=mxgraph.aws4.rds;labelBorderColor=#CC6600;fontFamily=Verdana;" parent="1" vertex="1">
                    <mxGeometry x="-678.5" y="595.75" width="30" height="30" as="geometry"/>
                </mxCell>
                <mxCell id="0zTFWlwXgpWSjvQMvuse-46" value="" style="shape=image;verticalLabelPosition=bottom;labelBackgroundColor=default;verticalAlign=top;aspect=fixed;imageAspect=0;image=https://seeklogo.com/images/A/aws-cloudformation-logo-11F173F931-seeklogo.com.png;" parent="1" vertex="1">
                    <mxGeometry x="-643.49" y="595.75" width="32.25" height="32.25" as="geometry"/>
                </mxCell>
                <mxCell id="0zTFWlwXgpWSjvQMvuse-47" value="" style="shape=image;verticalLabelPosition=bottom;labelBackgroundColor=default;verticalAlign=top;aspect=fixed;imageAspect=0;image=https://res.cloudinary.com/hy4kyit2a/f_auto,fl_lossy,q_70/learn/modules/aws-pricing-models-and-support/work-together-using-aws-organizations/images/bccf0128089ed0d8fcbe515d39500b7d_f-07473-b-8-fda-0-476-a-8-e-26-24-bf-751-aba-33.png;" parent="1" vertex="1">
                    <mxGeometry x="-715.37" y="579.25" width="28.75" height="28.75" as="geometry"/>
                </mxCell>
                <mxCell id="0zTFWlwXgpWSjvQMvuse-48" value="" style="sketch=0;points=[[0,0,0],[0.25,0,0],[0.5,0,0],[0.75,0,0],[1,0,0],[0,1,0],[0.25,1,0],[0.5,1,0],[0.75,1,0],[1,1,0],[0,0.25,0],[0,0.5,0],[0,0.75,0],[1,0.25,0],[1,0.5,0],[1,0.75,0]];points=[[0,0,0],[0.25,0,0],[0.5,0,0],[0.75,0,0],[1,0,0],[0,1,0],[0.25,1,0],[0.5,1,0],[0.75,1,0],[1,1,0],[0,0.25,0],[0,0.5,0],[0,0.75,0],[1,0.25,0],[1,0.5,0],[1,0.75,0]];outlineConnect=0;fontColor=#232F3E;gradientColor=#F34482;gradientDirection=north;fillColor=#BC1356;strokeColor=#ffffff;dashed=0;verticalLabelPosition=bottom;verticalAlign=top;align=center;html=1;fontSize=12;fontStyle=0;aspect=fixed;shape=mxgraph.aws4.resourceIcon;resIcon=mxgraph.aws4.control_tower;labelBorderColor=#CC6600;fontFamily=Verdana;" parent="1" vertex="1">
                    <mxGeometry x="-645.5" y="559" width="30" height="30" as="geometry"/>
                </mxCell>
                <mxCell id="0zTFWlwXgpWSjvQMvuse-55" value="" style="shape=image;verticalLabelPosition=bottom;labelBackgroundColor=default;verticalAlign=top;aspect=fixed;imageAspect=0;image=https://seeklogo.com/images/A/aws-cloudformation-logo-11F173F931-seeklogo.com.png;" parent="1" vertex="1">
                    <mxGeometry x="-278.99" y="442.25" width="32.25" height="32.25" as="geometry"/>
                </mxCell>
                <mxCell id="0zTFWlwXgpWSjvQMvuse-64" value="CONTAS WORKLOADS ROD" style="shape=ext;double=1;rounded=1;whiteSpace=wrap;html=1;labelBorderColor=#CC6600;strokeColor=#994C00;fontFamily=Verdana;fontSize=14;fontColor=#da7a0b;fillColor=none;" parent="1" vertex="1">
                    <mxGeometry x="-474" y="640" width="114" height="100" as="geometry"/>
                </mxCell>
                <mxCell id="0zTFWlwXgpWSjvQMvuse-33" value="" style="outlineConnect=0;dashed=0;verticalLabelPosition=bottom;verticalAlign=top;align=center;html=1;shape=mxgraph.aws3.cloud_2;fillColor=#F58534;gradientColor=none;labelBorderColor=#CC6600;strokeColor=#994C00;fontFamily=Verdana;fontSize=14;fontColor=#da7a0b;" parent="1" vertex="1">
                    <mxGeometry x="-466" y="650" width="20" height="20" as="geometry"/>
                </mxCell>
                <mxCell id="0zTFWlwXgpWSjvQMvuse-72" value="CONTAS WORKLOADS DEV" style="shape=ext;double=1;rounded=1;whiteSpace=wrap;html=1;labelBorderColor=#CC6600;strokeColor=#994C00;fontFamily=Verdana;fontSize=14;fontColor=#da7a0b;fillColor=none;" parent="1" vertex="1">
                    <mxGeometry x="-338.36" y="640" width="118.36" height="100" as="geometry"/>
                </mxCell>
                <mxCell id="0zTFWlwXgpWSjvQMvuse-73" value="CONTAS WORKLOADS STG" style="shape=ext;double=1;rounded=1;whiteSpace=wrap;html=1;labelBorderColor=#CC6600;strokeColor=#994C00;fontFamily=Verdana;fontSize=14;fontColor=#da7a0b;fillColor=none;" parent="1" vertex="1">
                    <mxGeometry x="-210" y="640" width="115.12" height="100" as="geometry"/>
                </mxCell>
                <mxCell id="mVQ72EMpFI8mESeUXqW6-1" value="" style="outlineConnect=0;dashed=0;verticalLabelPosition=bottom;verticalAlign=top;align=center;html=1;shape=mxgraph.aws3.cloud_2;fillColor=#F58534;gradientColor=none;labelBorderColor=#CC6600;strokeColor=#994C00;fontFamily=Verdana;fontSize=14;fontColor=#da7a0b;" parent="1" vertex="1">
                    <mxGeometry x="-331.24" y="650" width="20" height="20" as="geometry"/>
                </mxCell>
                <mxCell id="mVQ72EMpFI8mESeUXqW6-2" value="" style="outlineConnect=0;dashed=0;verticalLabelPosition=bottom;verticalAlign=top;align=center;html=1;shape=mxgraph.aws3.cloud_2;fillColor=#F58534;gradientColor=none;labelBorderColor=#CC6600;strokeColor=#994C00;fontFamily=Verdana;fontSize=14;fontColor=#da7a0b;" parent="1" vertex="1">
                    <mxGeometry x="-200" y="650" width="20" height="20" as="geometry"/>
                </mxCell>
                <mxCell id="0zTFWlwXgpWSjvQMvuse-63" value="&lt;meta charset=&quot;utf-8&quot; style=&quot;font-size: 13px;&quot;&gt;&lt;b id=&quot;docs-internal-guid-4d9bb82f-7fff-9113-0fea-84f576a3a55c&quot; style=&quot;font-weight: normal; font-size: 13px;&quot;&gt;&lt;p style=&quot;line-height: 1.2; margin-top: 0pt; margin-bottom: 0pt; font-size: 13px;&quot; dir=&quot;ltr&quot;&gt;&lt;span style=&quot;font-size: 13px; font-family: Arial, sans-serif; color: rgb(182, 182, 8); background-color: transparent; font-weight: 400; font-style: normal; font-variant: normal; text-decoration: none; vertical-align: baseline;&quot;&gt;root@zup.com.br&lt;/span&gt;&lt;/p&gt;&lt;/b&gt;&lt;br class=&quot;Apple-interchange-newline&quot; style=&quot;font-size: 13px;&quot;&gt;" style="text;whiteSpace=wrap;html=1;fontSize=13;fontFamily=Verdana;fontColor=#FFFFFF;" parent="1" vertex="1">
                    <mxGeometry x="-469" y="710" width="116" height="30" as="geometry"/>
                </mxCell>
                <mxCell id="mVQ72EMpFI8mESeUXqW6-5" value="&lt;meta charset=&quot;utf-8&quot; style=&quot;font-size: 13px;&quot;&gt;&lt;b id=&quot;docs-internal-guid-4d9bb82f-7fff-9113-0fea-84f576a3a55c&quot; style=&quot;font-weight: normal; font-size: 13px;&quot;&gt;&lt;p style=&quot;line-height: 1.2; margin-top: 0pt; margin-bottom: 0pt; font-size: 13px;&quot; dir=&quot;ltr&quot;&gt;&lt;span style=&quot;font-size: 13px; font-family: Arial, sans-serif; color: rgb(182, 182, 8); background-color: transparent; font-weight: 400; font-style: normal; font-variant: normal; text-decoration: none; vertical-align: baseline;&quot;&gt;root@zup.com.br&lt;/span&gt;&lt;/p&gt;&lt;/b&gt;&lt;br class=&quot;Apple-interchange-newline&quot; style=&quot;font-size: 13px;&quot;&gt;" style="text;whiteSpace=wrap;html=1;fontSize=13;fontFamily=Verdana;fontColor=#FFFFFF;" parent="1" vertex="1">
                    <mxGeometry x="-331.24" y="710" width="116" height="30" as="geometry"/>
                </mxCell>
                <mxCell id="mVQ72EMpFI8mESeUXqW6-6" value="&lt;meta charset=&quot;utf-8&quot; style=&quot;font-size: 13px;&quot;&gt;&lt;b id=&quot;docs-internal-guid-4d9bb82f-7fff-9113-0fea-84f576a3a55c&quot; style=&quot;font-weight: normal; font-size: 13px;&quot;&gt;&lt;p style=&quot;line-height: 1.2; margin-top: 0pt; margin-bottom: 0pt; font-size: 13px;&quot; dir=&quot;ltr&quot;&gt;&lt;span style=&quot;font-size: 13px; font-family: Arial, sans-serif; color: rgb(182, 182, 8); background-color: transparent; font-weight: 400; font-style: normal; font-variant: normal; text-decoration: none; vertical-align: baseline;&quot;&gt;root@zup.com.br&lt;/span&gt;&lt;/p&gt;&lt;/b&gt;&lt;br class=&quot;Apple-interchange-newline&quot; style=&quot;font-size: 13px;&quot;&gt;" style="text;whiteSpace=wrap;html=1;fontSize=13;fontFamily=Verdana;fontColor=#FFFFFF;" parent="1" vertex="1">
                    <mxGeometry x="-203" y="710" width="116" height="30" as="geometry"/>
                </mxCell>
                <mxCell id="mVQ72EMpFI8mESeUXqW6-7" value="" style="shape=ext;double=1;rounded=1;whiteSpace=wrap;html=1;labelBorderColor=#CC6600;strokeColor=#d3913c;fontFamily=Verdana;fontSize=14;fontColor=#da7a0b;fillColor=none;" parent="1" vertex="1">
                    <mxGeometry y="402.75" width="320" height="202.25" as="geometry"/>
                </mxCell>
                <mxCell id="mVQ72EMpFI8mESeUXqW6-8" value="&lt;hr&gt;" style="rounded=0;whiteSpace=wrap;html=1;fillColor=none;fontColor=#000000;strokeColor=#CC6600;strokeWidth=6;" parent="1" vertex="1">
                    <mxGeometry x="-40" y="325" width="400" height="440" as="geometry"/>
                </mxCell>
                <mxCell id="mVQ72EMpFI8mESeUXqW6-9" value="&lt;meta charset=&quot;utf-8&quot; style=&quot;font-size: 14px;&quot;&gt;&lt;b id=&quot;docs-internal-guid-69158c5f-7fff-e766-64af-5187dd032948&quot; style=&quot;font-weight: normal; font-size: 14px;&quot;&gt;&lt;p style=&quot;line-height: 1.2; margin-top: 0pt; margin-bottom: 0pt; font-size: 14px;&quot; dir=&quot;ltr&quot;&gt;&lt;span style=&quot;font-size: 14px; font-family: Montserrat, sans-serif; color: rgb(255, 102, 51); background-color: transparent; font-weight: 400; font-style: normal; font-variant: normal; text-decoration: none; vertical-align: baseline;&quot;&gt;AWS Organization&lt;/span&gt;&lt;/p&gt;&lt;/b&gt;&lt;br class=&quot;Apple-interchange-newline&quot; style=&quot;font-size: 14px;&quot;&gt;" style="text;whiteSpace=wrap;html=1;fontSize=14;fontFamily=Verdana;fontColor=#da7a0b;" parent="1" vertex="1">
                    <mxGeometry x="82.14" y="333" width="190" height="25" as="geometry"/>
                </mxCell>
                <mxCell id="mVQ72EMpFI8mESeUXqW6-10" value="" style="outlineConnect=0;dashed=0;verticalLabelPosition=bottom;verticalAlign=top;align=center;html=1;shape=mxgraph.aws3.cloud_2;fillColor=#F58534;gradientColor=none;labelBorderColor=#CC6600;strokeColor=#994C00;fontFamily=Verdana;fontSize=14;fontColor=#da7a0b;" parent="1" vertex="1">
                    <mxGeometry x="-36" y="330" width="40" height="40" as="geometry"/>
                </mxCell>
                <mxCell id="mVQ72EMpFI8mESeUXqW6-11" value="" style="sketch=0;points=[[0,0,0],[0.25,0,0],[0.5,0,0],[0.75,0,0],[1,0,0],[0,1,0],[0.25,1,0],[0.5,1,0],[0.75,1,0],[1,1,0],[0,0.25,0],[0,0.5,0],[0,0.75,0],[1,0.25,0],[1,0.5,0],[1,0.75,0]];points=[[0,0,0],[0.25,0,0],[0.5,0,0],[0.75,0,0],[1,0,0],[0,1,0],[0.25,1,0],[0.5,1,0],[0.75,1,0],[1,1,0],[0,0.25,0],[0,0.5,0],[0,0.75,0],[1,0.25,0],[1,0.5,0],[1,0.75,0]];outlineConnect=0;fontColor=#232F3E;gradientColor=#F34482;gradientDirection=north;fillColor=#BC1356;strokeColor=#ffffff;dashed=0;verticalLabelPosition=bottom;verticalAlign=top;align=center;html=1;fontSize=12;fontStyle=0;aspect=fixed;shape=mxgraph.aws4.resourceIcon;resIcon=mxgraph.aws4.control_tower;labelBorderColor=#CC6600;fontFamily=Verdana;" parent="1" vertex="1">
                    <mxGeometry x="75.75999999999999" y="445" width="33" height="33" as="geometry"/>
                </mxCell>
                <mxCell id="mVQ72EMpFI8mESeUXqW6-12" value="" style="sketch=0;points=[[0,0,0],[0.25,0,0],[0.5,0,0],[0.75,0,0],[1,0,0],[0,1,0],[0.25,1,0],[0.5,1,0],[0.75,1,0],[1,1,0],[0,0.25,0],[0,0.5,0],[0,0.75,0],[1,0.25,0],[1,0.5,0],[1,0.75,0]];points=[[0,0,0],[0.25,0,0],[0.5,0,0],[0.75,0,0],[1,0,0],[0,1,0],[0.25,1,0],[0.5,1,0],[0.75,1,0],[1,1,0],[0,0.25,0],[0,0.5,0],[0,0.75,0],[1,0.25,0],[1,0.5,0],[1,0.75,0]];outlineConnect=0;fontColor=#232F3E;gradientColor=#F34482;gradientDirection=north;fillColor=#BC1356;strokeColor=#ffffff;dashed=0;verticalLabelPosition=bottom;verticalAlign=top;align=center;html=1;fontSize=12;fontStyle=0;aspect=fixed;shape=mxgraph.aws4.resourceIcon;resIcon=mxgraph.aws4.service_catalog;labelBorderColor=#CC6600;fontFamily=Verdana;" parent="1" vertex="1">
                    <mxGeometry x="118.75999999999999" y="445" width="34.5" height="34.5" as="geometry"/>
                </mxCell>
                <mxCell id="mVQ72EMpFI8mESeUXqW6-13" value="&lt;span style=&quot;font-size: 14px;&quot; id=&quot;docs-internal-guid-15ad3dd0-7fff-9596-e46c-5fff35ea77f1&quot;&gt;&lt;p style=&quot;line-height: 1.2; text-align: center; margin-top: 0pt; margin-bottom: 0pt; font-size: 14px;&quot; dir=&quot;ltr&quot;&gt;&lt;/p&gt;&lt;/span&gt;&lt;font face=&quot;Montserrat, sans-serif&quot; color=&quot;#ff9900&quot;&gt;Data Plane&lt;br&gt;&lt;/font&gt;" style="text;whiteSpace=wrap;html=1;fontSize=14;fontFamily=Verdana;fontColor=#da7a0b;fontStyle=1" parent="1" vertex="1">
                    <mxGeometry x="108.75999999999999" y="410.5" width="78.37" height="30" as="geometry"/>
                </mxCell>
                <mxCell id="mVQ72EMpFI8mESeUXqW6-14" value="&lt;font color=&quot;#ffffff&quot;&gt;Hub-in-out&lt;/font&gt;" style="rounded=1;whiteSpace=wrap;html=1;strokeWidth=2;fillWeight=4;hachureGap=8;hachureAngle=45;fillColor=#990000;sketch=1;labelBorderColor=#CC6600;strokeColor=#994C00;fontFamily=Verdana;fontSize=14;fontColor=#990000;" parent="1" vertex="1">
                    <mxGeometry x="7.5" y="525" width="67.25" height="20" as="geometry"/>
                </mxCell>
                <mxCell id="mVQ72EMpFI8mESeUXqW6-15" value="&lt;font color=&quot;#ffffff&quot;&gt;Log Archive&lt;/font&gt;" style="rounded=1;whiteSpace=wrap;html=1;strokeWidth=2;fillWeight=4;hachureGap=8;hachureAngle=45;fillColor=#990000;sketch=1;labelBorderColor=#CC6600;strokeColor=#994C00;fontFamily=Verdana;fontSize=14;fontColor=#990000;" parent="1" vertex="1">
                    <mxGeometry x="186" y="555" width="60" height="30" as="geometry"/>
                </mxCell>
                <mxCell id="mVQ72EMpFI8mESeUXqW6-16" value="&lt;font color=&quot;#ffffff&quot;&gt;Foudation&lt;/font&gt;" style="rounded=1;whiteSpace=wrap;html=1;strokeWidth=2;fillWeight=4;hachureGap=8;hachureAngle=45;fillColor=#990000;sketch=1;labelBorderColor=#CC6600;strokeColor=#994C00;fontFamily=Verdana;fontSize=14;fontColor=#990000;" parent="1" vertex="1">
                    <mxGeometry x="176.5" y="525" width="69.5" height="20" as="geometry"/>
                </mxCell>
                <mxCell id="mVQ72EMpFI8mESeUXqW6-17" value="&lt;font color=&quot;#ffffff&quot;&gt;Security&lt;/font&gt;" style="rounded=1;whiteSpace=wrap;html=1;strokeWidth=2;fillWeight=4;hachureGap=8;hachureAngle=45;fillColor=#990000;sketch=1;labelBorderColor=#CC6600;strokeColor=#994C00;fontFamily=Verdana;fontSize=14;fontColor=#990000;" parent="1" vertex="1">
                    <mxGeometry x="27" y="555" width="70" height="20" as="geometry"/>
                </mxCell>
                <mxCell id="mVQ72EMpFI8mESeUXqW6-18" value="&lt;font color=&quot;#ffffff&quot;&gt;Audit&lt;/font&gt;" style="rounded=1;whiteSpace=wrap;html=1;strokeWidth=2;fillWeight=4;hachureGap=8;hachureAngle=45;fillColor=#990000;sketch=1;labelBorderColor=#CC6600;strokeColor=#994C00;fontFamily=Verdana;fontSize=14;fontColor=#990000;" parent="1" vertex="1">
                    <mxGeometry x="260" y="525" width="48.5" height="20" as="geometry"/>
                </mxCell>
                <mxCell id="mVQ72EMpFI8mESeUXqW6-19" value="&lt;font color=&quot;#ffffff&quot;&gt;Custodian&lt;/font&gt;" style="rounded=1;whiteSpace=wrap;html=1;strokeWidth=2;fillWeight=4;hachureGap=8;hachureAngle=45;fillColor=#990000;sketch=1;labelBorderColor=#CC6600;strokeColor=#994C00;fontFamily=Verdana;fontSize=14;fontColor=#990000;" parent="1" vertex="1">
                    <mxGeometry x="91.00999999999999" y="525" width="70" height="20" as="geometry"/>
                </mxCell>
                <mxCell id="mVQ72EMpFI8mESeUXqW6-20" value="&lt;font color=&quot;#ffffff&quot;&gt;Shared Dev&lt;/font&gt;" style="rounded=1;whiteSpace=wrap;html=1;strokeWidth=2;fillWeight=4;hachureGap=8;hachureAngle=45;fillColor=#990000;sketch=1;labelBorderColor=#CC6600;strokeColor=#994C00;fontFamily=Verdana;fontSize=14;fontColor=#990000;" parent="1" vertex="1">
                    <mxGeometry x="113.75999999999999" y="555" width="44.5" height="30" as="geometry"/>
                </mxCell>
                <mxCell id="mVQ72EMpFI8mESeUXqW6-21" value="" style="shape=image;verticalLabelPosition=bottom;labelBackgroundColor=default;verticalAlign=top;aspect=fixed;imageAspect=0;image=https://seeklogo.com/images/A/aws-cloudformation-logo-11F173F931-seeklogo.com.png;" parent="1" vertex="1">
                    <mxGeometry x="161.01" y="447.25" width="32.25" height="32.25" as="geometry"/>
                </mxCell>
                <mxCell id="mVQ72EMpFI8mESeUXqW6-22" value="CONTAS WORKLOADS ROD" style="shape=ext;double=1;rounded=1;whiteSpace=wrap;html=1;labelBorderColor=#CC6600;strokeColor=#994C00;fontFamily=Verdana;fontSize=14;fontColor=#da7a0b;fillColor=none;" parent="1" vertex="1">
                    <mxGeometry x="-34" y="645" width="114" height="100" as="geometry"/>
                </mxCell>
                <mxCell id="mVQ72EMpFI8mESeUXqW6-23" value="" style="outlineConnect=0;dashed=0;verticalLabelPosition=bottom;verticalAlign=top;align=center;html=1;shape=mxgraph.aws3.cloud_2;fillColor=#F58534;gradientColor=none;labelBorderColor=#CC6600;strokeColor=#994C00;fontFamily=Verdana;fontSize=14;fontColor=#da7a0b;" parent="1" vertex="1">
                    <mxGeometry x="-26" y="655" width="20" height="20" as="geometry"/>
                </mxCell>
                <mxCell id="mVQ72EMpFI8mESeUXqW6-24" value="CONTAS WORKLOADS DEV" style="shape=ext;double=1;rounded=1;whiteSpace=wrap;html=1;labelBorderColor=#CC6600;strokeColor=#994C00;fontFamily=Verdana;fontSize=14;fontColor=#da7a0b;fillColor=none;" parent="1" vertex="1">
                    <mxGeometry x="101.63999999999999" y="645" width="118.36" height="100" as="geometry"/>
                </mxCell>
                <mxCell id="mVQ72EMpFI8mESeUXqW6-25" value="CONTAS WORKLOADS STG" style="shape=ext;double=1;rounded=1;whiteSpace=wrap;html=1;labelBorderColor=#CC6600;strokeColor=#994C00;fontFamily=Verdana;fontSize=14;fontColor=#da7a0b;fillColor=none;" parent="1" vertex="1">
                    <mxGeometry x="230" y="645" width="115.12" height="100" as="geometry"/>
                </mxCell>
                <mxCell id="mVQ72EMpFI8mESeUXqW6-26" value="" style="outlineConnect=0;dashed=0;verticalLabelPosition=bottom;verticalAlign=top;align=center;html=1;shape=mxgraph.aws3.cloud_2;fillColor=#F58534;gradientColor=none;labelBorderColor=#CC6600;strokeColor=#994C00;fontFamily=Verdana;fontSize=14;fontColor=#da7a0b;" parent="1" vertex="1">
                    <mxGeometry x="108.75999999999999" y="655" width="20" height="20" as="geometry"/>
                </mxCell>
                <mxCell id="mVQ72EMpFI8mESeUXqW6-27" value="" style="outlineConnect=0;dashed=0;verticalLabelPosition=bottom;verticalAlign=top;align=center;html=1;shape=mxgraph.aws3.cloud_2;fillColor=#F58534;gradientColor=none;labelBorderColor=#CC6600;strokeColor=#994C00;fontFamily=Verdana;fontSize=14;fontColor=#da7a0b;" parent="1" vertex="1">
                    <mxGeometry x="240" y="655" width="20" height="20" as="geometry"/>
                </mxCell>
                <mxCell id="mVQ72EMpFI8mESeUXqW6-28" value="&lt;meta charset=&quot;utf-8&quot; style=&quot;font-size: 13px;&quot;&gt;&lt;b id=&quot;docs-internal-guid-4d9bb82f-7fff-9113-0fea-84f576a3a55c&quot; style=&quot;font-weight: normal; font-size: 13px;&quot;&gt;&lt;p style=&quot;line-height: 1.2; margin-top: 0pt; margin-bottom: 0pt; font-size: 13px;&quot; dir=&quot;ltr&quot;&gt;&lt;span style=&quot;font-size: 13px; font-family: Arial, sans-serif; color: rgb(182, 182, 8); background-color: transparent; font-weight: 400; font-style: normal; font-variant: normal; text-decoration: none; vertical-align: baseline;&quot;&gt;root@zup.com.br&lt;/span&gt;&lt;/p&gt;&lt;/b&gt;&lt;br class=&quot;Apple-interchange-newline&quot; style=&quot;font-size: 13px;&quot;&gt;" style="text;whiteSpace=wrap;html=1;fontSize=13;fontFamily=Verdana;fontColor=#FFFFFF;" parent="1" vertex="1">
                    <mxGeometry x="-29" y="715" width="116" height="30" as="geometry"/>
                </mxCell>
                <mxCell id="mVQ72EMpFI8mESeUXqW6-29" value="&lt;meta charset=&quot;utf-8&quot; style=&quot;font-size: 13px;&quot;&gt;&lt;b id=&quot;docs-internal-guid-4d9bb82f-7fff-9113-0fea-84f576a3a55c&quot; style=&quot;font-weight: normal; font-size: 13px;&quot;&gt;&lt;p style=&quot;line-height: 1.2; margin-top: 0pt; margin-bottom: 0pt; font-size: 13px;&quot; dir=&quot;ltr&quot;&gt;&lt;span style=&quot;font-size: 13px; font-family: Arial, sans-serif; color: rgb(182, 182, 8); background-color: transparent; font-weight: 400; font-style: normal; font-variant: normal; text-decoration: none; vertical-align: baseline;&quot;&gt;root@zup.com.br&lt;/span&gt;&lt;/p&gt;&lt;/b&gt;&lt;br class=&quot;Apple-interchange-newline&quot; style=&quot;font-size: 13px;&quot;&gt;" style="text;whiteSpace=wrap;html=1;fontSize=13;fontFamily=Verdana;fontColor=#FFFFFF;" parent="1" vertex="1">
                    <mxGeometry x="108.75999999999999" y="715" width="116" height="30" as="geometry"/>
                </mxCell>
                <mxCell id="mVQ72EMpFI8mESeUXqW6-30" value="&lt;meta charset=&quot;utf-8&quot; style=&quot;font-size: 13px;&quot;&gt;&lt;b id=&quot;docs-internal-guid-4d9bb82f-7fff-9113-0fea-84f576a3a55c&quot; style=&quot;font-weight: normal; font-size: 13px;&quot;&gt;&lt;p style=&quot;line-height: 1.2; margin-top: 0pt; margin-bottom: 0pt; font-size: 13px;&quot; dir=&quot;ltr&quot;&gt;&lt;span style=&quot;font-size: 13px; font-family: Arial, sans-serif; color: rgb(182, 182, 8); background-color: transparent; font-weight: 400; font-style: normal; font-variant: normal; text-decoration: none; vertical-align: baseline;&quot;&gt;root@zup.com.br&lt;/span&gt;&lt;/p&gt;&lt;/b&gt;&lt;br class=&quot;Apple-interchange-newline&quot; style=&quot;font-size: 13px;&quot;&gt;" style="text;whiteSpace=wrap;html=1;fontSize=13;fontFamily=Verdana;fontColor=#FFFFFF;" parent="1" vertex="1">
                    <mxGeometry x="237" y="715" width="116" height="30" as="geometry"/>
                </mxCell>
                <mxCell id="mVQ72EMpFI8mESeUXqW6-31" value="" style="shape=ext;double=1;rounded=1;whiteSpace=wrap;html=1;labelBorderColor=#CC6600;strokeColor=#d3913c;fontFamily=Verdana;fontSize=14;fontColor=#da7a0b;fillColor=none;" parent="1" vertex="1">
                    <mxGeometry x="440" y="402.75" width="320" height="202.25" as="geometry"/>
                </mxCell>
                <mxCell id="mVQ72EMpFI8mESeUXqW6-32" value="&lt;hr&gt;" style="rounded=0;whiteSpace=wrap;html=1;fillColor=none;fontColor=#000000;strokeColor=#CC6600;strokeWidth=6;" parent="1" vertex="1">
                    <mxGeometry x="400" y="325" width="400" height="440" as="geometry"/>
                </mxCell>
                <mxCell id="mVQ72EMpFI8mESeUXqW6-33" value="&lt;meta charset=&quot;utf-8&quot; style=&quot;font-size: 14px;&quot;&gt;&lt;b id=&quot;docs-internal-guid-69158c5f-7fff-e766-64af-5187dd032948&quot; style=&quot;font-weight: normal; font-size: 14px;&quot;&gt;&lt;p style=&quot;line-height: 1.2; margin-top: 0pt; margin-bottom: 0pt; font-size: 14px;&quot; dir=&quot;ltr&quot;&gt;&lt;span style=&quot;font-size: 14px; font-family: Montserrat, sans-serif; color: rgb(255, 102, 51); background-color: transparent; font-weight: 400; font-style: normal; font-variant: normal; text-decoration: none; vertical-align: baseline;&quot;&gt;AWS Organization&lt;/span&gt;&lt;/p&gt;&lt;/b&gt;&lt;br class=&quot;Apple-interchange-newline&quot; style=&quot;font-size: 14px;&quot;&gt;" style="text;whiteSpace=wrap;html=1;fontSize=14;fontFamily=Verdana;fontColor=#da7a0b;" parent="1" vertex="1">
                    <mxGeometry x="511.76" y="333" width="190" height="25" as="geometry"/>
                </mxCell>
                <mxCell id="mVQ72EMpFI8mESeUXqW6-34" value="" style="outlineConnect=0;dashed=0;verticalLabelPosition=bottom;verticalAlign=top;align=center;html=1;shape=mxgraph.aws3.cloud_2;fillColor=#F58534;gradientColor=none;labelBorderColor=#CC6600;strokeColor=#994C00;fontFamily=Verdana;fontSize=14;fontColor=#da7a0b;" parent="1" vertex="1">
                    <mxGeometry x="404" y="330" width="40" height="40" as="geometry"/>
                </mxCell>
                <mxCell id="mVQ72EMpFI8mESeUXqW6-35" value="" style="sketch=0;points=[[0,0,0],[0.25,0,0],[0.5,0,0],[0.75,0,0],[1,0,0],[0,1,0],[0.25,1,0],[0.5,1,0],[0.75,1,0],[1,1,0],[0,0.25,0],[0,0.5,0],[0,0.75,0],[1,0.25,0],[1,0.5,0],[1,0.75,0]];points=[[0,0,0],[0.25,0,0],[0.5,0,0],[0.75,0,0],[1,0,0],[0,1,0],[0.25,1,0],[0.5,1,0],[0.75,1,0],[1,1,0],[0,0.25,0],[0,0.5,0],[0,0.75,0],[1,0.25,0],[1,0.5,0],[1,0.75,0]];outlineConnect=0;fontColor=#232F3E;gradientColor=#F34482;gradientDirection=north;fillColor=#BC1356;strokeColor=#ffffff;dashed=0;verticalLabelPosition=bottom;verticalAlign=top;align=center;html=1;fontSize=12;fontStyle=0;aspect=fixed;shape=mxgraph.aws4.resourceIcon;resIcon=mxgraph.aws4.control_tower;labelBorderColor=#CC6600;fontFamily=Verdana;" parent="1" vertex="1">
                    <mxGeometry x="515.76" y="445" width="33" height="33" as="geometry"/>
                </mxCell>
                <mxCell id="mVQ72EMpFI8mESeUXqW6-36" value="" style="sketch=0;points=[[0,0,0],[0.25,0,0],[0.5,0,0],[0.75,0,0],[1,0,0],[0,1,0],[0.25,1,0],[0.5,1,0],[0.75,1,0],[1,1,0],[0,0.25,0],[0,0.5,0],[0,0.75,0],[1,0.25,0],[1,0.5,0],[1,0.75,0]];points=[[0,0,0],[0.25,0,0],[0.5,0,0],[0.75,0,0],[1,0,0],[0,1,0],[0.25,1,0],[0.5,1,0],[0.75,1,0],[1,1,0],[0,0.25,0],[0,0.5,0],[0,0.75,0],[1,0.25,0],[1,0.5,0],[1,0.75,0]];outlineConnect=0;fontColor=#232F3E;gradientColor=#F34482;gradientDirection=north;fillColor=#BC1356;strokeColor=#ffffff;dashed=0;verticalLabelPosition=bottom;verticalAlign=top;align=center;html=1;fontSize=12;fontStyle=0;aspect=fixed;shape=mxgraph.aws4.resourceIcon;resIcon=mxgraph.aws4.service_catalog;labelBorderColor=#CC6600;fontFamily=Verdana;" parent="1" vertex="1">
                    <mxGeometry x="558.76" y="445" width="34.5" height="34.5" as="geometry"/>
                </mxCell>
                <mxCell id="mVQ72EMpFI8mESeUXqW6-37" value="&lt;span style=&quot;font-size: 14px;&quot; id=&quot;docs-internal-guid-15ad3dd0-7fff-9596-e46c-5fff35ea77f1&quot;&gt;&lt;p style=&quot;line-height: 1.2; text-align: center; margin-top: 0pt; margin-bottom: 0pt; font-size: 14px;&quot; dir=&quot;ltr&quot;&gt;&lt;/p&gt;&lt;/span&gt;&lt;font face=&quot;Montserrat, sans-serif&quot; color=&quot;#ff9900&quot;&gt;Data Plane&lt;br&gt;&lt;/font&gt;" style="text;whiteSpace=wrap;html=1;fontSize=14;fontFamily=Verdana;fontColor=#da7a0b;fontStyle=1" parent="1" vertex="1">
                    <mxGeometry x="548.76" y="410.5" width="78.37" height="30" as="geometry"/>
                </mxCell>
                <mxCell id="mVQ72EMpFI8mESeUXqW6-38" value="&lt;font color=&quot;#ffffff&quot;&gt;Hub-in-out&lt;/font&gt;" style="rounded=1;whiteSpace=wrap;html=1;strokeWidth=2;fillWeight=4;hachureGap=8;hachureAngle=45;fillColor=#990000;sketch=1;labelBorderColor=#CC6600;strokeColor=#994C00;fontFamily=Verdana;fontSize=14;fontColor=#990000;" parent="1" vertex="1">
                    <mxGeometry x="447.5" y="525" width="67.25" height="20" as="geometry"/>
                </mxCell>
                <mxCell id="mVQ72EMpFI8mESeUXqW6-39" value="&lt;font color=&quot;#ffffff&quot;&gt;Log Archive&lt;/font&gt;" style="rounded=1;whiteSpace=wrap;html=1;strokeWidth=2;fillWeight=4;hachureGap=8;hachureAngle=45;fillColor=#990000;sketch=1;labelBorderColor=#CC6600;strokeColor=#994C00;fontFamily=Verdana;fontSize=14;fontColor=#990000;" parent="1" vertex="1">
                    <mxGeometry x="626" y="555" width="60" height="30" as="geometry"/>
                </mxCell>
                <mxCell id="mVQ72EMpFI8mESeUXqW6-40" value="&lt;font color=&quot;#ffffff&quot;&gt;Foudation&lt;/font&gt;" style="rounded=1;whiteSpace=wrap;html=1;strokeWidth=2;fillWeight=4;hachureGap=8;hachureAngle=45;fillColor=#990000;sketch=1;labelBorderColor=#CC6600;strokeColor=#994C00;fontFamily=Verdana;fontSize=14;fontColor=#990000;" parent="1" vertex="1">
                    <mxGeometry x="616.5" y="525" width="69.5" height="20" as="geometry"/>
                </mxCell>
                <mxCell id="mVQ72EMpFI8mESeUXqW6-41" value="&lt;font color=&quot;#ffffff&quot;&gt;Security&lt;/font&gt;" style="rounded=1;whiteSpace=wrap;html=1;strokeWidth=2;fillWeight=4;hachureGap=8;hachureAngle=45;fillColor=#990000;sketch=1;labelBorderColor=#CC6600;strokeColor=#994C00;fontFamily=Verdana;fontSize=14;fontColor=#990000;" parent="1" vertex="1">
                    <mxGeometry x="467" y="555" width="70" height="20" as="geometry"/>
                </mxCell>
                <mxCell id="mVQ72EMpFI8mESeUXqW6-42" value="&lt;font color=&quot;#ffffff&quot;&gt;Audit&lt;/font&gt;" style="rounded=1;whiteSpace=wrap;html=1;strokeWidth=2;fillWeight=4;hachureGap=8;hachureAngle=45;fillColor=#990000;sketch=1;labelBorderColor=#CC6600;strokeColor=#994C00;fontFamily=Verdana;fontSize=14;fontColor=#990000;" parent="1" vertex="1">
                    <mxGeometry x="700" y="525" width="48.5" height="20" as="geometry"/>
                </mxCell>
                <mxCell id="mVQ72EMpFI8mESeUXqW6-43" value="&lt;font color=&quot;#ffffff&quot;&gt;Custodian&lt;/font&gt;" style="rounded=1;whiteSpace=wrap;html=1;strokeWidth=2;fillWeight=4;hachureGap=8;hachureAngle=45;fillColor=#990000;sketch=1;labelBorderColor=#CC6600;strokeColor=#994C00;fontFamily=Verdana;fontSize=14;fontColor=#990000;" parent="1" vertex="1">
                    <mxGeometry x="531.01" y="525" width="70" height="20" as="geometry"/>
                </mxCell>
                <mxCell id="mVQ72EMpFI8mESeUXqW6-44" value="&lt;font color=&quot;#ffffff&quot;&gt;Shared Dev&lt;/font&gt;" style="rounded=1;whiteSpace=wrap;html=1;strokeWidth=2;fillWeight=4;hachureGap=8;hachureAngle=45;fillColor=#990000;sketch=1;labelBorderColor=#CC6600;strokeColor=#994C00;fontFamily=Verdana;fontSize=14;fontColor=#990000;" parent="1" vertex="1">
                    <mxGeometry x="553.76" y="555" width="44.5" height="30" as="geometry"/>
                </mxCell>
                <mxCell id="mVQ72EMpFI8mESeUXqW6-45" value="" style="shape=image;verticalLabelPosition=bottom;labelBackgroundColor=default;verticalAlign=top;aspect=fixed;imageAspect=0;image=https://seeklogo.com/images/A/aws-cloudformation-logo-11F173F931-seeklogo.com.png;" parent="1" vertex="1">
                    <mxGeometry x="601.01" y="447.25" width="32.25" height="32.25" as="geometry"/>
                </mxCell>
                <mxCell id="mVQ72EMpFI8mESeUXqW6-46" value="CONTAS WORKLOADS ROD" style="shape=ext;double=1;rounded=1;whiteSpace=wrap;html=1;labelBorderColor=#CC6600;strokeColor=#994C00;fontFamily=Verdana;fontSize=14;fontColor=#da7a0b;fillColor=none;" parent="1" vertex="1">
                    <mxGeometry x="406" y="645" width="114" height="100" as="geometry"/>
                </mxCell>
                <mxCell id="mVQ72EMpFI8mESeUXqW6-47" value="" style="outlineConnect=0;dashed=0;verticalLabelPosition=bottom;verticalAlign=top;align=center;html=1;shape=mxgraph.aws3.cloud_2;fillColor=#F58534;gradientColor=none;labelBorderColor=#CC6600;strokeColor=#994C00;fontFamily=Verdana;fontSize=14;fontColor=#da7a0b;" parent="1" vertex="1">
                    <mxGeometry x="414" y="655" width="20" height="20" as="geometry"/>
                </mxCell>
                <mxCell id="mVQ72EMpFI8mESeUXqW6-48" value="CONTAS WORKLOADS DEV" style="shape=ext;double=1;rounded=1;whiteSpace=wrap;html=1;labelBorderColor=#CC6600;strokeColor=#994C00;fontFamily=Verdana;fontSize=14;fontColor=#da7a0b;fillColor=none;" parent="1" vertex="1">
                    <mxGeometry x="541.64" y="645" width="118.36" height="100" as="geometry"/>
                </mxCell>
                <mxCell id="mVQ72EMpFI8mESeUXqW6-49" value="CONTAS WORKLOADS STG" style="shape=ext;double=1;rounded=1;whiteSpace=wrap;html=1;labelBorderColor=#CC6600;strokeColor=#994C00;fontFamily=Verdana;fontSize=14;fontColor=#da7a0b;fillColor=none;" parent="1" vertex="1">
                    <mxGeometry x="670" y="645" width="115.12" height="100" as="geometry"/>
                </mxCell>
                <mxCell id="mVQ72EMpFI8mESeUXqW6-50" value="" style="outlineConnect=0;dashed=0;verticalLabelPosition=bottom;verticalAlign=top;align=center;html=1;shape=mxgraph.aws3.cloud_2;fillColor=#F58534;gradientColor=none;labelBorderColor=#CC6600;strokeColor=#994C00;fontFamily=Verdana;fontSize=14;fontColor=#da7a0b;" parent="1" vertex="1">
                    <mxGeometry x="548.76" y="655" width="20" height="20" as="geometry"/>
                </mxCell>
                <mxCell id="mVQ72EMpFI8mESeUXqW6-51" value="" style="outlineConnect=0;dashed=0;verticalLabelPosition=bottom;verticalAlign=top;align=center;html=1;shape=mxgraph.aws3.cloud_2;fillColor=#F58534;gradientColor=none;labelBorderColor=#CC6600;strokeColor=#994C00;fontFamily=Verdana;fontSize=14;fontColor=#da7a0b;" parent="1" vertex="1">
                    <mxGeometry x="680" y="655" width="20" height="20" as="geometry"/>
                </mxCell>
                <mxCell id="mVQ72EMpFI8mESeUXqW6-52" value="&lt;meta charset=&quot;utf-8&quot; style=&quot;font-size: 13px;&quot;&gt;&lt;b id=&quot;docs-internal-guid-4d9bb82f-7fff-9113-0fea-84f576a3a55c&quot; style=&quot;font-weight: normal; font-size: 13px;&quot;&gt;&lt;p style=&quot;line-height: 1.2; margin-top: 0pt; margin-bottom: 0pt; font-size: 13px;&quot; dir=&quot;ltr&quot;&gt;&lt;span style=&quot;font-size: 13px; font-family: Arial, sans-serif; color: rgb(182, 182, 8); background-color: transparent; font-weight: 400; font-style: normal; font-variant: normal; text-decoration: none; vertical-align: baseline;&quot;&gt;root@zup.com.br&lt;/span&gt;&lt;/p&gt;&lt;/b&gt;&lt;br class=&quot;Apple-interchange-newline&quot; style=&quot;font-size: 13px;&quot;&gt;" style="text;whiteSpace=wrap;html=1;fontSize=13;fontFamily=Verdana;fontColor=#FFFFFF;" parent="1" vertex="1">
                    <mxGeometry x="411" y="715" width="116" height="30" as="geometry"/>
                </mxCell>
                <mxCell id="mVQ72EMpFI8mESeUXqW6-53" value="&lt;meta charset=&quot;utf-8&quot; style=&quot;font-size: 13px;&quot;&gt;&lt;b id=&quot;docs-internal-guid-4d9bb82f-7fff-9113-0fea-84f576a3a55c&quot; style=&quot;font-weight: normal; font-size: 13px;&quot;&gt;&lt;p style=&quot;line-height: 1.2; margin-top: 0pt; margin-bottom: 0pt; font-size: 13px;&quot; dir=&quot;ltr&quot;&gt;&lt;span style=&quot;font-size: 13px; font-family: Arial, sans-serif; color: rgb(182, 182, 8); background-color: transparent; font-weight: 400; font-style: normal; font-variant: normal; text-decoration: none; vertical-align: baseline;&quot;&gt;root@zup.com.br&lt;/span&gt;&lt;/p&gt;&lt;/b&gt;&lt;br class=&quot;Apple-interchange-newline&quot; style=&quot;font-size: 13px;&quot;&gt;" style="text;whiteSpace=wrap;html=1;fontSize=13;fontFamily=Verdana;fontColor=#FFFFFF;" parent="1" vertex="1">
                    <mxGeometry x="548.76" y="715" width="116" height="30" as="geometry"/>
                </mxCell>
                <mxCell id="mVQ72EMpFI8mESeUXqW6-54" value="&lt;meta charset=&quot;utf-8&quot; style=&quot;font-size: 13px;&quot;&gt;&lt;b id=&quot;docs-internal-guid-4d9bb82f-7fff-9113-0fea-84f576a3a55c&quot; style=&quot;font-weight: normal; font-size: 13px;&quot;&gt;&lt;p style=&quot;line-height: 1.2; margin-top: 0pt; margin-bottom: 0pt; font-size: 13px;&quot; dir=&quot;ltr&quot;&gt;&lt;span style=&quot;font-size: 13px; font-family: Arial, sans-serif; color: rgb(182, 182, 8); background-color: transparent; font-weight: 400; font-style: normal; font-variant: normal; text-decoration: none; vertical-align: baseline;&quot;&gt;root@zup.com.br&lt;/span&gt;&lt;/p&gt;&lt;/b&gt;&lt;br class=&quot;Apple-interchange-newline&quot; style=&quot;font-size: 13px;&quot;&gt;" style="text;whiteSpace=wrap;html=1;fontSize=13;fontFamily=Verdana;fontColor=#FFFFFF;" parent="1" vertex="1">
                    <mxGeometry x="677" y="715" width="116" height="30" as="geometry"/>
                </mxCell>
            </root>
        </mxGraphModel>
    </diagram>
</mxfile>